SplineFontDB: 3.2
FontName: Konemo_Tactile
FullName: Konemo Tactile
FamilyName: Konemo
Weight: Book
Copyright: Copyright (c) 2024, Jorim
Version: 001.000
ItalicAngle: 0
UnderlinePosition: -100
UnderlineWidth: 50
Ascent: 800
Descent: 200
InvalidEm: 0
sfntRevision: 0x00010000
LayerCount: 2
Layer: 0 1 "Back" 1
Layer: 1 1 "Fore" 0
XUID: [1021 554 -210071277 15136093]
StyleMap: 0x0040
FSType: 0
OS2Version: 4
OS2_WeightWidthSlopeOnly: 0
OS2_UseTypoMetrics: 1
CreationTime: 1734519155
ModificationTime: 1777466560
PfmFamily: 17
TTFWeight: 400
TTFWidth: 5
LineGap: 90
VLineGap: 0
Panose: 2 0 5 3 0 0 0 0 0 0
OS2TypoAscent: 800
OS2TypoAOffset: 0
OS2TypoDescent: -200
OS2TypoDOffset: 0
OS2TypoLinegap: 90
OS2WinAscent: 925
OS2WinAOffset: 0
OS2WinDescent: 125
OS2WinDOffset: 0
HheadAscent: 925
HheadAOffset: 0
HheadDescent: -125
HheadDOffset: 0
OS2SubXSize: 650
OS2SubYSize: 700
OS2SubXOff: 0
OS2SubYOff: 140
OS2SupXSize: 650
OS2SupYSize: 700
OS2SupXOff: 0
OS2SupYOff: 480
OS2StrikeYSize: 49
OS2StrikeYPos: 258
OS2CapHeight: 425
OS2XHeight: 725
OS2Vendor: 'PfEd'
OS2CodePages: 00000001.00000000
OS2UnicodeRanges: 00000003.00000000.00000000.00000000
MarkAttachClasses: 1
DEI: 91125
TtTable: prep
PUSHW_1
 511
SCANCTRL
PUSHB_1
 1
SCANTYPE
SVTCA[y-axis]
MPPEM
PUSHB_1
 8
LT
IF
PUSHB_2
 1
 1
INSTCTRL
EIF
PUSHB_2
 70
 6
CALL
IF
POP
PUSHB_1
 16
EIF
MPPEM
PUSHB_1
 20
GT
IF
POP
PUSHB_1
 128
EIF
SCVTCI
PUSHB_1
 20
CALL
EndTTInstrs
TtTable: fpgm
PUSHB_1
 0
FDEF
PUSHB_1
 0
SZP0
MPPEM
PUSHB_1
 42
LT
IF
PUSHB_1
 74
SROUND
EIF
PUSHB_1
 0
SWAP
MIAP[rnd]
RTG
PUSHB_1
 6
CALL
IF
RTDG
EIF
MPPEM
PUSHB_1
 42
LT
IF
RDTG
EIF
DUP
MDRP[rp0,rnd,grey]
PUSHB_1
 1
SZP0
MDAP[no-rnd]
RTG
ENDF
PUSHB_1
 1
FDEF
DUP
MDRP[rp0,min,white]
PUSHB_1
 12
CALL
ENDF
PUSHB_1
 2
FDEF
MPPEM
GT
IF
RCVT
SWAP
EIF
POP
ENDF
PUSHB_1
 3
FDEF
ROUND[Black]
RTG
DUP
PUSHB_1
 64
LT
IF
POP
PUSHB_1
 64
EIF
ENDF
PUSHB_1
 4
FDEF
PUSHB_1
 6
CALL
IF
POP
SWAP
POP
ROFF
IF
MDRP[rp0,min,rnd,black]
ELSE
MDRP[min,rnd,black]
EIF
ELSE
MPPEM
GT
IF
IF

StartChar: .notdef
Encoding: 1114112 -1 0
Width: 364
GlyphClass: 1
Flags: W
HStem: 0 33<66 265> 633 33<66 265>
VStem: 33 33<33 633> 265 33<33 633>
LayerCount: 2
Fore
SplineSet
33 0 m 1,0,-1
 33 666 l 1,1,-1
 298 666 l 1,2,-1
 298 0 l 1,3,-1
 33 0 l 1,0,-1
66 33 m 1,4,-1
 265 33 l 1,5,-1
 265 633 l 1,6,-1
 66 633 l 1,7,-1
 66 33 l 1,4,-1
EndSplineSet
Validated: 1
EndChar

StartChar: exclam
Encoding: 33 33 33
Width: 600
GlyphClass: 1
Flags: W
HStem: -25 50<275.183 324.817> 375 50<150.183 199.817> 575 50<150.183 199.817> 775 50<275.183 324.817>
VStem: 150 50<375.183 424.817 575.183 624.817> 275 50<-24.8169 24.8169 775.183 824.817>
LayerCount: 2
Fore
SplineSet
275 800 m 128,-1,1
 275 810 275 810 282.5 817.5 c 128,-1,2
 290 825 290 825 300 825 c 128,-1,3
 310 825 310 825 317.5 817.5 c 128,-1,4
 325 810 325 810 325 800 c 128,-1,5
 325 790 325 790 317.5 782.5 c 128,-1,6
 310 775 310 775 300 775 c 128,-1,7
 290 775 290 775 282.5 782.5 c 128,-1,0
 275 790 275 790 275 800 c 128,-1,1
150 600 m 128,-1,9
 150 610 150 610 157.5 617.5 c 128,-1,10
 165 625 165 625 175 625 c 128,-1,11
 185 625 185 625 192.5 617.5 c 128,-1,12
 200 610 200 610 200 600 c 128,-1,13
 200 590 200 590 192.5 582.5 c 128,-1,14
 185 575 185 575 175 575 c 128,-1,15
 165 575 165 575 157.5 582.5 c 128,-1,8
 150 590 150 590 150 600 c 128,-1,9
150 400 m 128,-1,17
 150 410 150 410 157.5 417.5 c 128,-1,18
 165 425 165 425 175 425 c 128,-1,19
 185 425 185 425 192.5 417.5 c 128,-1,20
 200 410 200 410 200 400 c 128,-1,21
 200 390 200 390 192.5 382.5 c 128,-1,22
 185 375 185 375 175 375 c 128,-1,23
 165 375 165 375 157.5 382.5 c 128,-1,16
 150 390 150 390 150 400 c 128,-1,17
275 0 m 128,-1,25
 275 10 275 10 282.5 17.5 c 128,-1,26
 290 25 290 25 300 25 c 128,-1,27
 310 25 310 25 317.5 17.5 c 128,-1,28
 325 10 325 10 325 0 c 128,-1,29
 325 -10 325 -10 317.5 -17.5 c 128,-1,30
 310 -25 310 -25 300 -25 c 128,-1,31
 290 -25 290 -25 282.5 -17.5 c 128,-1,24
 275 -10 275 -10 275 0 c 128,-1,25
EndSplineSet
Validated: 2049
EndChar

StartChar: asterisk
Encoding: 42 42 34
Width: 600
GlyphClass: 1
Flags: W
HStem: -25 50<275.183 324.817> 375 50<400.183 449.817> 775 50<275.183 324.817>
VStem: 275 50<-24.8169 24.8169 775.183 824.817> 400 50<375.183 424.817>
CounterMasks: 1 e0
LayerCount: 2
Fore
SplineSet
275 0 m 128,-1,1
 275 10 275 10 282.5 17.5 c 128,-1,2
 290 25 290 25 300 25 c 128,-1,3
 310 25 310 25 317.5 17.5 c 128,-1,4
 325 10 325 10 325 0 c 128,-1,5
 325 -10 325 -10 317.5 -17.5 c 128,-1,6
 310 -25 310 -25 300 -25 c 128,-1,7
 290 -25 290 -25 282.5 -17.5 c 128,-1,0
 275 -10 275 -10 275 0 c 128,-1,1
275 800 m 128,-1,9
 275 810 275 810 282.5 817.5 c 128,-1,10
 290 825 290 825 300 825 c 128,-1,11
 310 825 310 825 317.5 817.5 c 128,-1,12
 325 810 325 810 325 800 c 128,-1,13
 325 790 325 790 317.5 782.5 c 128,-1,14
 310 775 310 775 300 775 c 128,-1,15
 290 775 290 775 282.5 782.5 c 128,-1,8
 275 790 275 790 275 800 c 128,-1,9
400 400 m 128,-1,17
 400 410 400 410 407.5 417.5 c 128,-1,18
 415 425 415 425 425 425 c 128,-1,19
 435 425 435 425 442.5 417.5 c 128,-1,20
 450 410 450 410 450 400 c 128,-1,21
 450 390 450 390 442.5 382.5 c 128,-1,22
 435 375 435 375 425 375 c 128,-1,23
 415 375 415 375 407.5 382.5 c 128,-1,16
 400 390 400 390 400 400 c 128,-1,17
EndSplineSet
Validated: 1
EndChar

StartChar: plus
Encoding: 43 43 35
Width: 600
GlyphClass: 1
Flags: W
HStem: -25 50<275.183 324.817> 375 50<275.183 324.817> 575 50<275.183 324.817>
VStem: 275 50<-24.8169 24.8169 375.183 424.817 575.183 624.817>
LayerCount: 2
Fore
SplineSet
275 400 m 128,-1,1
 275 410 275 410 282.5 417.5 c 128,-1,2
 290 425 290 425 300 425 c 128,-1,3
 310 425 310 425 317.5 417.5 c 128,-1,4
 325 410 325 410 325 400 c 128,-1,5
 325 390 325 390 317.5 382.5 c 128,-1,6
 310 375 310 375 300 375 c 128,-1,7
 290 375 290 375 282.5 382.5 c 128,-1,0
 275 390 275 390 275 400 c 128,-1,1
275 600 m 128,-1,9
 275 610 275 610 282.5 617.5 c 128,-1,10
 290 625 290 625 300 625 c 128,-1,11
 310 625 310 625 317.5 617.5 c 128,-1,12
 325 610 325 610 325 600 c 128,-1,13
 325 590 325 590 317.5 582.5 c 128,-1,14
 310 575 310 575 300 575 c 128,-1,15
 290 575 290 575 282.5 582.5 c 128,-1,8
 275 590 275 590 275 600 c 128,-1,9
275 0 m 128,-1,17
 275 10 275 10 282.5 17.5 c 128,-1,18
 290 25 290 25 300 25 c 128,-1,19
 310 25 310 25 317.5 17.5 c 128,-1,20
 325 10 325 10 325 0 c 128,-1,21
 325 -10 325 -10 317.5 -17.5 c 128,-1,22
 310 -25 310 -25 300 -25 c 128,-1,23
 290 -25 290 -25 282.5 -17.5 c 128,-1,16
 275 -10 275 -10 275 0 c 128,-1,17
EndSplineSet
Validated: 1
EndChar

StartChar: comma
Encoding: 44 44 36
Width: 600
GlyphClass: 1
Flags: W
HStem: -25 50<275.183 324.817> 50 50<350.22 385.296>
VStem: 275 50<-24.8169 24.8169> 343 49<57.7349 92.2651>
LayerCount: 2
Fore
SplineSet
275 0 m 128,-1,1
 275 10 275 10 282.5 17.5 c 128,-1,2
 290 25 290 25 300 25 c 128,-1,3
 310 25 310 25 317.5 17.5 c 128,-1,4
 325 10 325 10 325 0 c 128,-1,5
 325 -10 325 -10 317.5 -17.5 c 128,-1,6
 310 -25 310 -25 300 -25 c 128,-1,7
 290 -25 290 -25 282.5 -17.5 c 128,-1,0
 275 -10 275 -10 275 0 c 128,-1,1
350 57.5 m 128,-1,9
 343 65 343 65 343 74.5 c 128,-1,10
 343 84 343 84 350 92 c 128,-1,11
 357 100 357 100 368 100 c 128,-1,12
 379 100 379 100 385.5 92.5 c 128,-1,13
 392 85 392 85 392 75.5 c 128,-1,14
 392 66 392 66 385 58 c 128,-1,15
 378 50 378 50 367.5 50 c 128,-1,8
 357 50 357 50 350 57.5 c 128,-1,9
EndSplineSet
Validated: 1
EndChar

StartChar: hyphen
Encoding: 45 45 37
Width: 600
GlyphClass: 1
Flags: W
HStem: -25 50<275.183 324.817> 175 50<275.183 324.817> 375 50<275.183 324.817>
VStem: 275 50<-24.8169 24.8169 175.183 224.817 375.183 424.817>
CounterMasks: 1 e0
LayerCount: 2
Fore
SplineSet
275 400 m 128,-1,1
 275 410 275 410 282.5 417.5 c 128,-1,2
 290 425 290 425 300 425 c 128,-1,3
 310 425 310 425 317.5 417.5 c 128,-1,4
 325 410 325 410 325 400 c 128,-1,5
 325 390 325 390 317.5 382.5 c 128,-1,6
 310 375 310 375 300 375 c 128,-1,7
 290 375 290 375 282.5 382.5 c 128,-1,0
 275 390 275 390 275 400 c 128,-1,1
275 200 m 128,-1,9
 275 210 275 210 282.5 217.5 c 128,-1,10
 290 225 290 225 300 225 c 128,-1,11
 310 225 310 225 317.5 217.5 c 128,-1,12
 325 210 325 210 325 200 c 128,-1,13
 325 190 325 190 317.5 182.5 c 128,-1,14
 310 175 310 175 300 175 c 128,-1,15
 290 175 290 175 282.5 182.5 c 128,-1,8
 275 190 275 190 275 200 c 128,-1,9
275 0 m 128,-1,17
 275 10 275 10 282.5 17.5 c 128,-1,18
 290 25 290 25 300 25 c 128,-1,19
 310 25 310 25 317.5 17.5 c 128,-1,20
 325 10 325 10 325 0 c 128,-1,21
 325 -10 325 -10 317.5 -17.5 c 128,-1,22
 310 -25 310 -25 300 -25 c 128,-1,23
 290 -25 290 -25 282.5 -17.5 c 128,-1,16
 275 -10 275 -10 275 0 c 128,-1,17
EndSplineSet
Validated: 1
EndChar

StartChar: period
Encoding: 46 46 38
Width: 600
GlyphClass: 1
Flags: W
HStem: -25 50<275.183 324.817> 50 50<215.22 250.296>
VStem: 208 49<57.7349 92.2651> 275 50<-24.8169 24.8169>
LayerCount: 2
Fore
SplineSet
275 0 m 128,-1,1
 275 10 275 10 282.5 17.5 c 128,-1,2
 290 25 290 25 300 25 c 128,-1,3
 310 25 310 25 317.5 17.5 c 128,-1,4
 325 10 325 10 325 0 c 128,-1,5
 325 -10 325 -10 317.5 -17.5 c 128,-1,6
 310 -25 310 -25 300 -25 c 128,-1,7
 290 -25 290 -25 282.5 -17.5 c 128,-1,0
 275 -10 275 -10 275 0 c 128,-1,1
215 57.5 m 128,-1,9
 208 65 208 65 208 74.5 c 128,-1,10
 208 84 208 84 215 92 c 128,-1,11
 222 100 222 100 233 100 c 128,-1,12
 244 100 244 100 250.5 92.5 c 128,-1,13
 257 85 257 85 257 75.5 c 128,-1,14
 257 66 257 66 250 58 c 128,-1,15
 243 50 243 50 232.5 50 c 128,-1,8
 222 50 222 50 215 57.5 c 128,-1,9
EndSplineSet
Validated: 1
EndChar

StartChar: slash
Encoding: 47 47 39
Width: 600
GlyphClass: 1
Flags: W
HStem: -25 50<275.183 324.817> 375 50<150.183 199.817> 775 50<275.183 324.817>
VStem: 150 50<375.183 424.817> 275 50<-24.8169 24.8169 775.183 824.817>
CounterMasks: 1 e0
LayerCount: 2
Fore
SplineSet
275 800 m 128,-1,1
 275 810 275 810 282.5 817.5 c 128,-1,2
 290 825 290 825 300 825 c 128,-1,3
 310 825 310 825 317.5 817.5 c 128,-1,4
 325 810 325 810 325 800 c 128,-1,5
 325 790 325 790 317.5 782.5 c 128,-1,6
 310 775 310 775 300 775 c 128,-1,7
 290 775 290 775 282.5 782.5 c 128,-1,0
 275 790 275 790 275 800 c 128,-1,1
150 400 m 128,-1,9
 150 410 150 410 157.5 417.5 c 128,-1,10
 165 425 165 425 175 425 c 128,-1,11
 185 425 185 425 192.5 417.5 c 128,-1,12
 200 410 200 410 200 400 c 128,-1,13
 200 390 200 390 192.5 382.5 c 128,-1,14
 185 375 185 375 175 375 c 128,-1,15
 165 375 165 375 157.5 382.5 c 128,-1,8
 150 390 150 390 150 400 c 128,-1,9
275 0 m 128,-1,17
 275 10 275 10 282.5 17.5 c 128,-1,18
 290 25 290 25 300 25 c 128,-1,19
 310 25 310 25 317.5 17.5 c 128,-1,20
 325 10 325 10 325 0 c 128,-1,21
 325 -10 325 -10 317.5 -17.5 c 128,-1,22
 310 -25 310 -25 300 -25 c 128,-1,23
 290 -25 290 -25 282.5 -17.5 c 128,-1,16
 275 -10 275 -10 275 0 c 128,-1,17
EndSplineSet
Validated: 1
EndChar

StartChar: zero
Encoding: 48 48 40
Width: 600
GlyphClass: 1
Flags: W
HStem: -25 50<275.183 324.817> 175 50<400.183 449.817> 575 50<150.183 199.817> 775 50<275.183 324.817>
VStem: 150 50<575.183 624.817> 275 50<-24.8169 24.8169 775.183 824.817> 400 50<175.183 224.817>
CounterMasks: 1 0e
LayerCount: 2
Fore
SplineSet
275 800 m 128,-1,1
 275 810 275 810 282.5 817.5 c 128,-1,2
 290 825 290 825 300 825 c 128,-1,3
 310 825 310 825 317.5 817.5 c 128,-1,4
 325 810 325 810 325 800 c 128,-1,5
 325 790 325 790 317.5 782.5 c 128,-1,6
 310 775 310 775 300 775 c 128,-1,7
 290 775 290 775 282.5 782.5 c 128,-1,0
 275 790 275 790 275 800 c 128,-1,1
150 600 m 128,-1,9
 150 610 150 610 157.5 617.5 c 128,-1,10
 165 625 165 625 175 625 c 128,-1,11
 185 625 185 625 192.5 617.5 c 128,-1,12
 200 610 200 610 200 600 c 128,-1,13
 200 590 200 590 192.5 582.5 c 128,-1,14
 185 575 185 575 175 575 c 128,-1,15
 165 575 165 575 157.5 582.5 c 128,-1,8
 150 590 150 590 150 600 c 128,-1,9
400 200 m 128,-1,17
 400 210 400 210 407.5 217.5 c 128,-1,18
 415 225 415 225 425 225 c 128,-1,19
 435 225 435 225 442.5 217.5 c 128,-1,20
 450 210 450 210 450 200 c 128,-1,21
 450 190 450 190 442.5 182.5 c 128,-1,22
 435 175 435 175 425 175 c 128,-1,23
 415 175 415 175 407.5 182.5 c 128,-1,16
 400 190 400 190 400 200 c 128,-1,17
275 0 m 128,-1,25
 275 10 275 10 282.5 17.5 c 128,-1,26
 290 25 290 25 300 25 c 128,-1,27
 310 25 310 25 317.5 17.5 c 128,-1,28
 325 10 325 10 325 0 c 128,-1,29
 325 -10 325 -10 317.5 -17.5 c 128,-1,30
 310 -25 310 -25 300 -25 c 128,-1,31
 290 -25 290 -25 282.5 -17.5 c 128,-1,24
 275 -10 275 -10 275 0 c 128,-1,25
EndSplineSet
Validated: 2049
EndChar

StartChar: one
Encoding: 49 49 41
Width: 600
GlyphClass: 1
Flags: W
HStem: -25 50<275.183 324.817> 575 50<150.183 199.817>
VStem: 150 50<575.183 624.817> 275 50<-24.8169 24.8169>
LayerCount: 2
Fore
SplineSet
150 600 m 128,-1,1
 150 610 150 610 157.5 617.5 c 128,-1,2
 165 625 165 625 175 625 c 128,-1,3
 185 625 185 625 192.5 617.5 c 128,-1,4
 200 610 200 610 200 600 c 128,-1,5
 200 590 200 590 192.5 582.5 c 128,-1,6
 185 575 185 575 175 575 c 128,-1,7
 165 575 165 575 157.5 582.5 c 128,-1,0
 150 590 150 590 150 600 c 128,-1,1
275 0 m 128,-1,9
 275 10 275 10 282.5 17.5 c 128,-1,10
 290 25 290 25 300 25 c 128,-1,11
 310 25 310 25 317.5 17.5 c 128,-1,12
 325 10 325 10 325 0 c 128,-1,13
 325 -10 325 -10 317.5 -17.5 c 128,-1,14
 310 -25 310 -25 300 -25 c 128,-1,15
 290 -25 290 -25 282.5 -17.5 c 128,-1,8
 275 -10 275 -10 275 0 c 128,-1,9
EndSplineSet
Validated: 1
EndChar

StartChar: two
Encoding: 50 50 42
Width: 600
GlyphClass: 1
Flags: W
HStem: -25 50<275.183 324.817> 575 50<400.183 449.817>
VStem: 275 50<-24.8169 24.8169> 400 50<575.183 624.817>
LayerCount: 2
Fore
SplineSet
400 600 m 128,-1,1
 400 610 400 610 407.5 617.5 c 128,-1,2
 415 625 415 625 425 625 c 128,-1,3
 435 625 435 625 442.5 617.5 c 128,-1,4
 450 610 450 610 450 600 c 128,-1,5
 450 590 450 590 442.5 582.5 c 128,-1,6
 435 575 435 575 425 575 c 128,-1,7
 415 575 415 575 407.5 582.5 c 128,-1,0
 400 590 400 590 400 600 c 128,-1,1
275 0 m 128,-1,9
 275 10 275 10 282.5 17.5 c 128,-1,10
 290 25 290 25 300 25 c 128,-1,11
 310 25 310 25 317.5 17.5 c 128,-1,12
 325 10 325 10 325 0 c 128,-1,13
 325 -10 325 -10 317.5 -17.5 c 128,-1,14
 310 -25 310 -25 300 -25 c 128,-1,15
 290 -25 290 -25 282.5 -17.5 c 128,-1,8
 275 -10 275 -10 275 0 c 128,-1,9
EndSplineSet
Validated: 1
EndChar

StartChar: three
Encoding: 51 51 43
Width: 600
GlyphClass: 1
Flags: W
HStem: -25 50<275.183 324.817> 175 50<400.183 449.817>
VStem: 275 50<-24.8169 24.8169> 400 50<175.183 224.817>
LayerCount: 2
Fore
SplineSet
400 200 m 128,-1,1
 400 210 400 210 407.5 217.5 c 128,-1,2
 415 225 415 225 425 225 c 128,-1,3
 435 225 435 225 442.5 217.5 c 128,-1,4
 450 210 450 210 450 200 c 128,-1,5
 450 190 450 190 442.5 182.5 c 128,-1,6
 435 175 435 175 425 175 c 128,-1,7
 415 175 415 175 407.5 182.5 c 128,-1,0
 400 190 400 190 400 200 c 128,-1,1
275 0 m 128,-1,9
 275 10 275 10 282.5 17.5 c 128,-1,10
 290 25 290 25 300 25 c 128,-1,11
 310 25 310 25 317.5 17.5 c 128,-1,12
 325 10 325 10 325 0 c 128,-1,13
 325 -10 325 -10 317.5 -17.5 c 128,-1,14
 310 -25 310 -25 300 -25 c 128,-1,15
 290 -25 290 -25 282.5 -17.5 c 128,-1,8
 275 -10 275 -10 275 0 c 128,-1,9
EndSplineSet
Validated: 1
EndChar

StartChar: four
Encoding: 52 52 44
Width: 600
GlyphClass: 1
Flags: W
HStem: -25 50<275.183 324.817> 175 50<150.183 199.817>
VStem: 150 50<175.183 224.817> 275 50<-24.8169 24.8169>
LayerCount: 2
Fore
SplineSet
150 200 m 128,-1,1
 150 210 150 210 157.5 217.5 c 128,-1,2
 165 225 165 225 175 225 c 128,-1,3
 185 225 185 225 192.5 217.5 c 128,-1,4
 200 210 200 210 200 200 c 128,-1,5
 200 190 200 190 192.5 182.5 c 128,-1,6
 185 175 185 175 175 175 c 128,-1,7
 165 175 165 175 157.5 182.5 c 128,-1,0
 150 190 150 190 150 200 c 128,-1,1
275 0 m 128,-1,9
 275 10 275 10 282.5 17.5 c 128,-1,10
 290 25 290 25 300 25 c 128,-1,11
 310 25 310 25 317.5 17.5 c 128,-1,12
 325 10 325 10 325 0 c 128,-1,13
 325 -10 325 -10 317.5 -17.5 c 128,-1,14
 310 -25 310 -25 300 -25 c 128,-1,15
 290 -25 290 -25 282.5 -17.5 c 128,-1,8
 275 -10 275 -10 275 0 c 128,-1,9
EndSplineSet
Validated: 1
EndChar

StartChar: five
Encoding: 53 53 45
Width: 600
GlyphClass: 1
Flags: W
HStem: -25 50<275.183 324.817> 375 50<275.183 324.817>
VStem: 275 50<-24.8169 24.8169 375.183 424.817>
LayerCount: 2
Fore
SplineSet
275 400 m 128,-1,1
 275 410 275 410 282.5 417.5 c 128,-1,2
 290 425 290 425 300 425 c 128,-1,3
 310 425 310 425 317.5 417.5 c 128,-1,4
 325 410 325 410 325 400 c 128,-1,5
 325 390 325 390 317.5 382.5 c 128,-1,6
 310 375 310 375 300 375 c 128,-1,7
 290 375 290 375 282.5 382.5 c 128,-1,0
 275 390 275 390 275 400 c 128,-1,1
275 0 m 128,-1,9
 275 10 275 10 282.5 17.5 c 128,-1,10
 290 25 290 25 300 25 c 128,-1,11
 310 25 310 25 317.5 17.5 c 128,-1,12
 325 10 325 10 325 0 c 128,-1,13
 325 -10 325 -10 317.5 -17.5 c 128,-1,14
 310 -25 310 -25 300 -25 c 128,-1,15
 290 -25 290 -25 282.5 -17.5 c 128,-1,8
 275 -10 275 -10 275 0 c 128,-1,9
EndSplineSet
Validated: 1
EndChar

StartChar: colon
Encoding: 58 58 46
Width: 600
GlyphClass: 1
Flags: W
HStem: -24.9951 49.9902<282.552 317.448>
VStem: 275.005 49.9902<-17.4483 17.4483>
LayerCount: 2
Fore
SplineSet
275 0 m 128,-1,1
 275 10 275 10 282 17 c 0,2,3
 290 25 290 25 300 25 c 128,-1,4
 310 25 310 25 317 18 c 0,5,6
 325 10 325 10 325 0 c 128,-1,7
 325 -10 325 -10 318 -17 c 0,8,9
 310 -25 310 -25 300 -25 c 128,-1,10
 290 -25 290 -25 282.5 -17.5 c 128,-1,0
 275 -10 275 -10 275 0 c 128,-1,1
EndSplineSet
Validated: 1
EndChar

StartChar: equal
Encoding: 61 61 47
Width: 600
GlyphClass: 1
Flags: W
HStem: -25 50<275.183 324.817> 375 50<275.183 324.817> 775 50<275.183 324.817>
VStem: 275 50<-24.8169 24.8169 375.183 424.817 775.183 824.817>
CounterMasks: 1 e0
LayerCount: 2
Fore
SplineSet
275 400 m 128,-1,1
 275 410 275 410 282.5 417.5 c 128,-1,2
 290 425 290 425 300 425 c 128,-1,3
 310 425 310 425 317.5 417.5 c 128,-1,4
 325 410 325 410 325 400 c 128,-1,5
 325 390 325 390 317.5 382.5 c 128,-1,6
 310 375 310 375 300 375 c 128,-1,7
 290 375 290 375 282.5 382.5 c 128,-1,0
 275 390 275 390 275 400 c 128,-1,1
275 800 m 128,-1,9
 275 810 275 810 282.5 817.5 c 128,-1,10
 290 825 290 825 300 825 c 128,-1,11
 310 825 310 825 317.5 817.5 c 128,-1,12
 325 810 325 810 325 800 c 128,-1,13
 325 790 325 790 317.5 782.5 c 128,-1,14
 310 775 310 775 300 775 c 128,-1,15
 290 775 290 775 282.5 782.5 c 128,-1,8
 275 790 275 790 275 800 c 128,-1,9
275 0 m 128,-1,17
 275 10 275 10 282.5 17.5 c 128,-1,18
 290 25 290 25 300 25 c 128,-1,19
 310 25 310 25 317.5 17.5 c 128,-1,20
 325 10 325 10 325 0 c 128,-1,21
 325 -10 325 -10 317.5 -17.5 c 128,-1,22
 310 -25 310 -25 300 -25 c 128,-1,23
 290 -25 290 -25 282.5 -17.5 c 128,-1,16
 275 -10 275 -10 275 0 c 128,-1,17
EndSplineSet
Validated: 1
EndChar

StartChar: question
Encoding: 63 63 48
Width: 600
GlyphClass: 1
Flags: W
HStem: -25 50<275.183 324.817> 375 50<450.183 499.817> 575 50<450.183 499.817>
VStem: 275 50<-24.8169 24.8169> 450 50<375.183 424.817 575.183 624.817>
LayerCount: 2
Fore
SplineSet
450 600 m 128,-1,1
 450 610 450 610 457.5 617.5 c 128,-1,2
 465 625 465 625 475 625 c 128,-1,3
 485 625 485 625 492.5 617.5 c 128,-1,4
 500 610 500 610 500 600 c 128,-1,5
 500 590 500 590 492.5 582.5 c 128,-1,6
 485 575 485 575 475 575 c 128,-1,7
 465 575 465 575 457.5 582.5 c 128,-1,0
 450 590 450 590 450 600 c 128,-1,1
450 400 m 128,-1,9
 450 410 450 410 457.5 417.5 c 128,-1,10
 465 425 465 425 475 425 c 128,-1,11
 485 425 485 425 492.5 417.5 c 128,-1,12
 500 410 500 410 500 400 c 128,-1,13
 500 390 500 390 492.5 382.5 c 128,-1,14
 485 375 485 375 475 375 c 128,-1,15
 465 375 465 375 457.5 382.5 c 128,-1,8
 450 390 450 390 450 400 c 128,-1,9
275 0 m 128,-1,17
 275 10 275 10 282.5 17.5 c 128,-1,18
 290 25 290 25 300 25 c 128,-1,19
 310 25 310 25 317.5 17.5 c 128,-1,20
 325 10 325 10 325 0 c 128,-1,21
 325 -10 325 -10 317.5 -17.5 c 128,-1,22
 310 -25 310 -25 300 -25 c 128,-1,23
 290 -25 290 -25 282.5 -17.5 c 128,-1,16
 275 -10 275 -10 275 0 c 128,-1,17
EndSplineSet
Validated: 1
EndChar

StartChar: A
Encoding: 65 65 49
Width: 600
GlyphClass: 1
Flags: W
HStem: -25 50<275.183 324.817> 375 50<275.183 324.817> 575 50<150.183 199.817>
VStem: 150 50<575.183 624.817> 275 50<-24.8169 24.8169 375.183 424.817>
LayerCount: 2
Fore
SplineSet
275 400 m 128,-1,1
 275 410 275 410 282.5 417.5 c 128,-1,2
 290 425 290 425 300 425 c 128,-1,3
 310 425 310 425 317.5 417.5 c 128,-1,4
 325 410 325 410 325 400 c 128,-1,5
 325 390 325 390 317.5 382.5 c 128,-1,6
 310 375 310 375 300 375 c 128,-1,7
 290 375 290 375 282.5 382.5 c 128,-1,0
 275 390 275 390 275 400 c 128,-1,1
150 600 m 128,-1,9
 150 610 150 610 157.5 617.5 c 128,-1,10
 165 625 165 625 175 625 c 128,-1,11
 185 625 185 625 192.5 617.5 c 128,-1,12
 200 610 200 610 200 600 c 128,-1,13
 200 590 200 590 192.5 582.5 c 128,-1,14
 185 575 185 575 175 575 c 128,-1,15
 165 575 165 575 157.5 582.5 c 128,-1,8
 150 590 150 590 150 600 c 128,-1,9
275 0 m 128,-1,17
 275 10 275 10 282.5 17.5 c 128,-1,18
 290 25 290 25 300 25 c 128,-1,19
 310 25 310 25 317.5 17.5 c 128,-1,20
 325 10 325 10 325 0 c 128,-1,21
 325 -10 325 -10 317.5 -17.5 c 128,-1,22
 310 -25 310 -25 300 -25 c 128,-1,23
 290 -25 290 -25 282.5 -17.5 c 128,-1,16
 275 -10 275 -10 275 0 c 128,-1,17
EndSplineSet
Validated: 1
EndChar

StartChar: B
Encoding: 66 66 50
Width: 600
GlyphClass: 1
Flags: W
HStem: -25 50<275.183 324.817> 575 50<150.183 199.817 400.183 449.817> 775 50<275.183 324.817>
VStem: 150 50<575.183 624.817> 275 50<-24.8169 24.8169 775.183 824.817> 400 50<575.183 624.817>
CounterMasks: 1 1c
LayerCount: 2
Fore
SplineSet
275 0 m 128,-1,1
 275 10 275 10 282.5 17.5 c 128,-1,2
 290 25 290 25 300 25 c 128,-1,3
 310 25 310 25 317.5 17.5 c 128,-1,4
 325 10 325 10 325 0 c 128,-1,5
 325 -10 325 -10 317.5 -17.5 c 128,-1,6
 310 -25 310 -25 300 -25 c 128,-1,7
 290 -25 290 -25 282.5 -17.5 c 128,-1,0
 275 -10 275 -10 275 0 c 128,-1,1
150 600 m 128,-1,9
 150 610 150 610 157.5 617.5 c 128,-1,10
 165 625 165 625 175 625 c 128,-1,11
 185 625 185 625 192.5 617.5 c 128,-1,12
 200 610 200 610 200 600 c 128,-1,13
 200 590 200 590 192.5 582.5 c 128,-1,14
 185 575 185 575 175 575 c 128,-1,15
 165 575 165 575 157.5 582.5 c 128,-1,8
 150 590 150 590 150 600 c 128,-1,9
400 600 m 128,-1,17
 400 610 400 610 407.5 617.5 c 128,-1,18
 415 625 415 625 425 625 c 128,-1,19
 435 625 435 625 442.5 617.5 c 128,-1,20
 450 610 450 610 450 600 c 128,-1,21
 450 590 450 590 442.5 582.5 c 128,-1,22
 435 575 435 575 425 575 c 128,-1,23
 415 575 415 575 407.5 582.5 c 128,-1,16
 400 590 400 590 400 600 c 128,-1,17
275 800 m 128,-1,25
 275 810 275 810 282.5 817.5 c 128,-1,26
 290 825 290 825 300 825 c 128,-1,27
 310 825 310 825 317.5 817.5 c 128,-1,28
 325 810 325 810 325 800 c 128,-1,29
 325 790 325 790 317.5 782.5 c 128,-1,30
 310 775 310 775 300 775 c 128,-1,31
 290 775 290 775 282.5 782.5 c 128,-1,24
 275 790 275 790 275 800 c 128,-1,25
EndSplineSet
Validated: 2049
EndChar

StartChar: C
Encoding: 67 67 51
Width: 600
GlyphClass: 1
Flags: W
HStem: -25 50<275.183 324.817> 175 50<150.183 199.817 400.183 449.817> 575 50<150.183 199.817>
VStem: 150 50<175.183 224.817 575.183 624.817> 275 50<-24.8169 24.8169> 400 50<175.183 224.817>
CounterMasks: 1 1c
LayerCount: 2
Fore
SplineSet
400 200 m 128,-1,1
 400 210 400 210 407.5 217.5 c 128,-1,2
 415 225 415 225 425 225 c 128,-1,3
 435 225 435 225 442.5 217.5 c 128,-1,4
 450 210 450 210 450 200 c 128,-1,5
 450 190 450 190 442.5 182.5 c 128,-1,6
 435 175 435 175 425 175 c 128,-1,7
 415 175 415 175 407.5 182.5 c 128,-1,0
 400 190 400 190 400 200 c 128,-1,1
150 600 m 128,-1,9
 150 610 150 610 157.5 617.5 c 128,-1,10
 165 625 165 625 175 625 c 128,-1,11
 185 625 185 625 192.5 617.5 c 128,-1,12
 200 610 200 610 200 600 c 128,-1,13
 200 590 200 590 192.5 582.5 c 128,-1,14
 185 575 185 575 175 575 c 128,-1,15
 165 575 165 575 157.5 582.5 c 128,-1,8
 150 590 150 590 150 600 c 128,-1,9
150 200 m 128,-1,17
 150 210 150 210 157.5 217.5 c 128,-1,18
 165 225 165 225 175 225 c 128,-1,19
 185 225 185 225 192.5 217.5 c 128,-1,20
 200 210 200 210 200 200 c 128,-1,21
 200 190 200 190 192.5 182.5 c 128,-1,22
 185 175 185 175 175 175 c 128,-1,23
 165 175 165 175 157.5 182.5 c 128,-1,16
 150 190 150 190 150 200 c 128,-1,17
275 0 m 128,-1,25
 275 10 275 10 282.5 17.5 c 128,-1,26
 290 25 290 25 300 25 c 128,-1,27
 310 25 310 25 317.5 17.5 c 128,-1,28
 325 10 325 10 325 0 c 128,-1,29
 325 -10 325 -10 317.5 -17.5 c 128,-1,30
 310 -25 310 -25 300 -25 c 128,-1,31
 290 -25 290 -25 282.5 -17.5 c 128,-1,24
 275 -10 275 -10 275 0 c 128,-1,25
EndSplineSet
Validated: 2049
EndChar

StartChar: D
Encoding: 68 68 52
Width: 600
GlyphClass: 1
Flags: W
HStem: -25 50<275.183 324.817> 175 50<400.183 449.817> 575 50<150.183 199.817> 775 50<275.183 324.817>
VStem: 150 50<575.183 624.817> 275 50<-24.8169 24.8169 775.183 824.817> 400 50<175.183 224.817>
CounterMasks: 1 0e
LayerCount: 2
Fore
SplineSet
275 0 m 128,-1,1
 275 10 275 10 282.5 17.5 c 128,-1,2
 290 25 290 25 300 25 c 128,-1,3
 310 25 310 25 317.5 17.5 c 128,-1,4
 325 10 325 10 325 0 c 128,-1,5
 325 -10 325 -10 317.5 -17.5 c 128,-1,6
 310 -25 310 -25 300 -25 c 128,-1,7
 290 -25 290 -25 282.5 -17.5 c 128,-1,0
 275 -10 275 -10 275 0 c 128,-1,1
150 600 m 128,-1,9
 150 610 150 610 157.5 617.5 c 128,-1,10
 165 625 165 625 175 625 c 128,-1,11
 185 625 185 625 192.5 617.5 c 128,-1,12
 200 610 200 610 200 600 c 128,-1,13
 200 590 200 590 192.5 582.5 c 128,-1,14
 185 575 185 575 175 575 c 128,-1,15
 165 575 165 575 157.5 582.5 c 128,-1,8
 150 590 150 590 150 600 c 128,-1,9
400 200 m 128,-1,17
 400 210 400 210 407.5 217.5 c 128,-1,18
 415 225 415 225 425 225 c 128,-1,19
 435 225 435 225 442.5 217.5 c 128,-1,20
 450 210 450 210 450 200 c 128,-1,21
 450 190 450 190 442.5 182.5 c 128,-1,22
 435 175 435 175 425 175 c 128,-1,23
 415 175 415 175 407.5 182.5 c 128,-1,16
 400 190 400 190 400 200 c 128,-1,17
275 800 m 128,-1,25
 275 810 275 810 282.5 817.5 c 128,-1,26
 290 825 290 825 300 825 c 128,-1,27
 310 825 310 825 317.5 817.5 c 128,-1,28
 325 810 325 810 325 800 c 128,-1,29
 325 790 325 790 317.5 782.5 c 128,-1,30
 310 775 310 775 300 775 c 128,-1,31
 290 775 290 775 282.5 782.5 c 128,-1,24
 275 790 275 790 275 800 c 128,-1,25
EndSplineSet
Validated: 2049
EndChar

StartChar: E
Encoding: 69 69 53
Width: 600
GlyphClass: 1
Flags: W
HStem: -25 50<275.183 324.817> 375 50<275.183 324.817> 575 50<400.183 449.817>
VStem: 275 50<-24.8169 24.8169 375.183 424.817> 400 50<575.183 624.817>
LayerCount: 2
Fore
SplineSet
400 600 m 128,-1,1
 400 610 400 610 407.5 617.5 c 128,-1,2
 415 625 415 625 425 625 c 128,-1,3
 435 625 435 625 442.5 617.5 c 128,-1,4
 450 610 450 610 450 600 c 128,-1,5
 450 590 450 590 442.5 582.5 c 128,-1,6
 435 575 435 575 425 575 c 128,-1,7
 415 575 415 575 407.5 582.5 c 128,-1,0
 400 590 400 590 400 600 c 128,-1,1
275 400 m 128,-1,9
 275 410 275 410 282.5 417.5 c 128,-1,10
 290 425 290 425 300 425 c 128,-1,11
 310 425 310 425 317.5 417.5 c 128,-1,12
 325 410 325 410 325 400 c 128,-1,13
 325 390 325 390 317.5 382.5 c 128,-1,14
 310 375 310 375 300 375 c 128,-1,15
 290 375 290 375 282.5 382.5 c 128,-1,8
 275 390 275 390 275 400 c 128,-1,9
275 0 m 128,-1,17
 275 10 275 10 282.5 17.5 c 128,-1,18
 290 25 290 25 300 25 c 128,-1,19
 310 25 310 25 317.5 17.5 c 128,-1,20
 325 10 325 10 325 0 c 128,-1,21
 325 -10 325 -10 317.5 -17.5 c 128,-1,22
 310 -25 310 -25 300 -25 c 128,-1,23
 290 -25 290 -25 282.5 -17.5 c 128,-1,16
 275 -10 275 -10 275 0 c 128,-1,17
EndSplineSet
Validated: 1
EndChar

StartChar: F
Encoding: 70 70 54
Width: 600
GlyphClass: 1
Flags: W
HStem: -25 50<275.183 324.817> 175 50<150.183 199.817 400.183 449.817> 575 50<400.183 449.817>
VStem: 150 50<175.183 224.817> 275 50<-24.8169 24.8169> 400 50<175.183 224.817 575.183 624.817>
CounterMasks: 1 1c
LayerCount: 2
Fore
SplineSet
400 200 m 128,-1,1
 400 210 400 210 407.5 217.5 c 128,-1,2
 415 225 415 225 425 225 c 128,-1,3
 435 225 435 225 442.5 217.5 c 128,-1,4
 450 210 450 210 450 200 c 128,-1,5
 450 190 450 190 442.5 182.5 c 128,-1,6
 435 175 435 175 425 175 c 128,-1,7
 415 175 415 175 407.5 182.5 c 128,-1,0
 400 190 400 190 400 200 c 128,-1,1
400 600 m 128,-1,9
 400 610 400 610 407.5 617.5 c 128,-1,10
 415 625 415 625 425 625 c 128,-1,11
 435 625 435 625 442.5 617.5 c 128,-1,12
 450 610 450 610 450 600 c 128,-1,13
 450 590 450 590 442.5 582.5 c 128,-1,14
 435 575 435 575 425 575 c 128,-1,15
 415 575 415 575 407.5 582.5 c 128,-1,8
 400 590 400 590 400 600 c 128,-1,9
150 200 m 128,-1,17
 150 210 150 210 157.5 217.5 c 128,-1,18
 165 225 165 225 175 225 c 128,-1,19
 185 225 185 225 192.5 217.5 c 128,-1,20
 200 210 200 210 200 200 c 128,-1,21
 200 190 200 190 192.5 182.5 c 128,-1,22
 185 175 185 175 175 175 c 128,-1,23
 165 175 165 175 157.5 182.5 c 128,-1,16
 150 190 150 190 150 200 c 128,-1,17
275 0 m 128,-1,25
 275 10 275 10 282.5 17.5 c 128,-1,26
 290 25 290 25 300 25 c 128,-1,27
 310 25 310 25 317.5 17.5 c 128,-1,28
 325 10 325 10 325 0 c 128,-1,29
 325 -10 325 -10 317.5 -17.5 c 128,-1,30
 310 -25 310 -25 300 -25 c 128,-1,31
 290 -25 290 -25 282.5 -17.5 c 128,-1,24
 275 -10 275 -10 275 0 c 128,-1,25
EndSplineSet
Validated: 2049
EndChar

StartChar: G
Encoding: 71 71 55
Width: 600
GlyphClass: 1
Flags: W
HStem: -25 50<275.183 324.817> 175 50<150.183 199.817> 575 50<150.183 199.817> 775 50<275.183 324.817>
VStem: 150 50<175.183 224.817 575.183 624.817> 275 50<-24.8169 24.8169 775.183 824.817>
LayerCount: 2
Fore
SplineSet
275 0 m 128,-1,1
 275 10 275 10 282.5 17.5 c 128,-1,2
 290 25 290 25 300 25 c 128,-1,3
 310 25 310 25 317.5 17.5 c 128,-1,4
 325 10 325 10 325 0 c 128,-1,5
 325 -10 325 -10 317.5 -17.5 c 128,-1,6
 310 -25 310 -25 300 -25 c 128,-1,7
 290 -25 290 -25 282.5 -17.5 c 128,-1,0
 275 -10 275 -10 275 0 c 128,-1,1
150 600 m 128,-1,9
 150 610 150 610 157.5 617.5 c 128,-1,10
 165 625 165 625 175 625 c 128,-1,11
 185 625 185 625 192.5 617.5 c 128,-1,12
 200 610 200 610 200 600 c 128,-1,13
 200 590 200 590 192.5 582.5 c 128,-1,14
 185 575 185 575 175 575 c 128,-1,15
 165 575 165 575 157.5 582.5 c 128,-1,8
 150 590 150 590 150 600 c 128,-1,9
150 200 m 128,-1,17
 150 210 150 210 157.5 217.5 c 128,-1,18
 165 225 165 225 175 225 c 128,-1,19
 185 225 185 225 192.5 217.5 c 128,-1,20
 200 210 200 210 200 200 c 128,-1,21
 200 190 200 190 192.5 182.5 c 128,-1,22
 185 175 185 175 175 175 c 128,-1,23
 165 175 165 175 157.5 182.5 c 128,-1,16
 150 190 150 190 150 200 c 128,-1,17
275 800 m 128,-1,25
 275 810 275 810 282.5 817.5 c 128,-1,26
 290 825 290 825 300 825 c 128,-1,27
 310 825 310 825 317.5 817.5 c 128,-1,28
 325 810 325 810 325 800 c 128,-1,29
 325 790 325 790 317.5 782.5 c 128,-1,30
 310 775 310 775 300 775 c 128,-1,31
 290 775 290 775 282.5 782.5 c 128,-1,24
 275 790 275 790 275 800 c 128,-1,25
EndSplineSet
Validated: 2049
EndChar

StartChar: H
Encoding: 72 72 56
Width: 600
GlyphClass: 1
Flags: W
HStem: -25 50<275.183 324.817> 175 50<150.183 199.817 400.183 449.817> 575 50<150.183 199.817 400.183 449.817>
VStem: 150 50<175.183 224.817 575.183 624.817> 275 50<-24.8169 24.8169> 400 50<175.183 224.817 575.183 624.817>
CounterMasks: 1 1c
LayerCount: 2
Fore
SplineSet
400 200 m 128,-1,1
 400 210 400 210 407.5 217.5 c 128,-1,2
 415 225 415 225 425 225 c 128,-1,3
 435 225 435 225 442.5 217.5 c 128,-1,4
 450 210 450 210 450 200 c 128,-1,5
 450 190 450 190 442.5 182.5 c 128,-1,6
 435 175 435 175 425 175 c 128,-1,7
 415 175 415 175 407.5 182.5 c 128,-1,0
 400 190 400 190 400 200 c 128,-1,1
400 600 m 128,-1,9
 400 610 400 610 407.5 617.5 c 128,-1,10
 415 625 415 625 425 625 c 128,-1,11
 435 625 435 625 442.5 617.5 c 128,-1,12
 450 610 450 610 450 600 c 128,-1,13
 450 590 450 590 442.5 582.5 c 128,-1,14
 435 575 435 575 425 575 c 128,-1,15
 415 575 415 575 407.5 582.5 c 128,-1,8
 400 590 400 590 400 600 c 128,-1,9
150 600 m 128,-1,17
 150 610 150 610 157.5 617.5 c 128,-1,18
 165 625 165 625 175 625 c 128,-1,19
 185 625 185 625 192.5 617.5 c 128,-1,20
 200 610 200 610 200 600 c 128,-1,21
 200 590 200 590 192.5 582.5 c 128,-1,22
 185 575 185 575 175 575 c 128,-1,23
 165 575 165 575 157.5 582.5 c 128,-1,16
 150 590 150 590 150 600 c 128,-1,17
150 200 m 128,-1,25
 150 210 150 210 157.5 217.5 c 128,-1,26
 165 225 165 225 175 225 c 128,-1,27
 185 225 185 225 192.5 217.5 c 128,-1,28
 200 210 200 210 200 200 c 128,-1,29
 200 190 200 190 192.5 182.5 c 128,-1,30
 185 175 185 175 175 175 c 128,-1,31
 165 175 165 175 157.5 182.5 c 128,-1,24
 150 190 150 190 150 200 c 128,-1,25
275 0 m 128,-1,33
 275 10 275 10 282.5 17.5 c 128,-1,34
 290 25 290 25 300 25 c 128,-1,35
 310 25 310 25 317.5 17.5 c 128,-1,36
 325 10 325 10 325 0 c 128,-1,37
 325 -10 325 -10 317.5 -17.5 c 128,-1,38
 310 -25 310 -25 300 -25 c 128,-1,39
 290 -25 290 -25 282.5 -17.5 c 128,-1,32
 275 -10 275 -10 275 0 c 128,-1,33
EndSplineSet
Validated: 2049
EndChar

StartChar: J
Encoding: 74 74 57
Width: 600
GlyphClass: 1
Flags: W
HStem: -25 50<275.183 324.817> 175 50<150.183 199.817 400.183 449.817> 575 50<150.183 199.817> 775 50<275.183 324.817>
VStem: 150 50<175.183 224.817 575.183 624.817> 275 50<-24.8169 24.8169 775.183 824.817> 400 50<175.183 224.817>
CounterMasks: 1 0e
LayerCount: 2
Fore
SplineSet
275 0 m 128,-1,1
 275 10 275 10 282.5 17.5 c 128,-1,2
 290 25 290 25 300 25 c 128,-1,3
 310 25 310 25 317.5 17.5 c 128,-1,4
 325 10 325 10 325 0 c 128,-1,5
 325 -10 325 -10 317.5 -17.5 c 128,-1,6
 310 -25 310 -25 300 -25 c 128,-1,7
 290 -25 290 -25 282.5 -17.5 c 128,-1,0
 275 -10 275 -10 275 0 c 128,-1,1
150 200 m 128,-1,9
 150 210 150 210 157.5 217.5 c 128,-1,10
 165 225 165 225 175 225 c 128,-1,11
 185 225 185 225 192.5 217.5 c 128,-1,12
 200 210 200 210 200 200 c 128,-1,13
 200 190 200 190 192.5 182.5 c 128,-1,14
 185 175 185 175 175 175 c 128,-1,15
 165 175 165 175 157.5 182.5 c 128,-1,8
 150 190 150 190 150 200 c 128,-1,9
150 600 m 128,-1,17
 150 610 150 610 157.5 617.5 c 128,-1,18
 165 625 165 625 175 625 c 128,-1,19
 185 625 185 625 192.5 617.5 c 128,-1,20
 200 610 200 610 200 600 c 128,-1,21
 200 590 200 590 192.5 582.5 c 128,-1,22
 185 575 185 575 175 575 c 128,-1,23
 165 575 165 575 157.5 582.5 c 128,-1,16
 150 590 150 590 150 600 c 128,-1,17
400 200 m 128,-1,25
 400 210 400 210 407.5 217.5 c 128,-1,26
 415 225 415 225 425 225 c 128,-1,27
 435 225 435 225 442.5 217.5 c 128,-1,28
 450 210 450 210 450 200 c 128,-1,29
 450 190 450 190 442.5 182.5 c 128,-1,30
 435 175 435 175 425 175 c 128,-1,31
 415 175 415 175 407.5 182.5 c 128,-1,24
 400 190 400 190 400 200 c 128,-1,25
275 800 m 128,-1,33
 275 810 275 810 282.5 817.5 c 128,-1,34
 290 825 290 825 300 825 c 128,-1,35
 310 825 310 825 317.5 817.5 c 128,-1,36
 325 810 325 810 325 800 c 128,-1,37
 325 790 325 790 317.5 782.5 c 128,-1,38
 310 775 310 775 300 775 c 128,-1,39
 290 775 290 775 282.5 782.5 c 128,-1,32
 275 790 275 790 275 800 c 128,-1,33
EndSplineSet
Validated: 2049
EndChar

StartChar: K
Encoding: 75 75 58
Width: 600
GlyphClass: 1
Flags: W
HStem: -25 50<275.183 324.817> 175 50<150.183 199.817> 575 50<150.183 199.817>
VStem: 150 50<175.183 224.817 575.183 624.817> 275 50<-24.8169 24.8169>
LayerCount: 2
Fore
SplineSet
150 200 m 128,-1,1
 150 210 150 210 157.5 217.5 c 128,-1,2
 165 225 165 225 175 225 c 128,-1,3
 185 225 185 225 192.5 217.5 c 128,-1,4
 200 210 200 210 200 200 c 128,-1,5
 200 190 200 190 192.5 182.5 c 128,-1,6
 185 175 185 175 175 175 c 128,-1,7
 165 175 165 175 157.5 182.5 c 128,-1,0
 150 190 150 190 150 200 c 128,-1,1
150 600 m 128,-1,9
 150 610 150 610 157.5 617.5 c 128,-1,10
 165 625 165 625 175 625 c 128,-1,11
 185 625 185 625 192.5 617.5 c 128,-1,12
 200 610 200 610 200 600 c 128,-1,13
 200 590 200 590 192.5 582.5 c 128,-1,14
 185 575 185 575 175 575 c 128,-1,15
 165 575 165 575 157.5 582.5 c 128,-1,8
 150 590 150 590 150 600 c 128,-1,9
275 0 m 128,-1,17
 275 10 275 10 282.5 17.5 c 128,-1,18
 290 25 290 25 300 25 c 128,-1,19
 310 25 310 25 317.5 17.5 c 128,-1,20
 325 10 325 10 325 0 c 128,-1,21
 325 -10 325 -10 317.5 -17.5 c 128,-1,22
 310 -25 310 -25 300 -25 c 128,-1,23
 290 -25 290 -25 282.5 -17.5 c 128,-1,16
 275 -10 275 -10 275 0 c 128,-1,17
EndSplineSet
Validated: 1
EndChar

StartChar: L
Encoding: 76 76 59
Width: 600
GlyphClass: 1
Flags: W
HStem: -25 50<275.183 324.817> 175 50<150.183 199.817 400.183 449.817> 575 50<150.183 199.817 400.183 449.817> 775 50<275.183 324.817>
VStem: 150 50<175.183 224.817 575.183 624.817> 275 50<-24.8169 24.8169 775.183 824.817> 400 50<175.183 224.817 575.183 624.817>
CounterMasks: 1 0e
LayerCount: 2
Fore
SplineSet
275 0 m 128,-1,1
 275 10 275 10 282.5 17.5 c 128,-1,2
 290 25 290 25 300 25 c 128,-1,3
 310 25 310 25 317.5 17.5 c 128,-1,4
 325 10 325 10 325 0 c 128,-1,5
 325 -10 325 -10 317.5 -17.5 c 128,-1,6
 310 -25 310 -25 300 -25 c 128,-1,7
 290 -25 290 -25 282.5 -17.5 c 128,-1,0
 275 -10 275 -10 275 0 c 128,-1,1
150 200 m 128,-1,9
 150 210 150 210 157.5 217.5 c 128,-1,10
 165 225 165 225 175 225 c 128,-1,11
 185 225 185 225 192.5 217.5 c 128,-1,12
 200 210 200 210 200 200 c 128,-1,13
 200 190 200 190 192.5 182.5 c 128,-1,14
 185 175 185 175 175 175 c 128,-1,15
 165 175 165 175 157.5 182.5 c 128,-1,8
 150 190 150 190 150 200 c 128,-1,9
150 600 m 128,-1,17
 150 610 150 610 157.5 617.5 c 128,-1,18
 165 625 165 625 175 625 c 128,-1,19
 185 625 185 625 192.5 617.5 c 128,-1,20
 200 610 200 610 200 600 c 128,-1,21
 200 590 200 590 192.5 582.5 c 128,-1,22
 185 575 185 575 175 575 c 128,-1,23
 165 575 165 575 157.5 582.5 c 128,-1,16
 150 590 150 590 150 600 c 128,-1,17
400 600 m 128,-1,25
 400 610 400 610 407.5 617.5 c 128,-1,26
 415 625 415 625 425 625 c 128,-1,27
 435 625 435 625 442.5 617.5 c 128,-1,28
 450 610 450 610 450 600 c 128,-1,29
 450 590 450 590 442.5 582.5 c 128,-1,30
 435 575 435 575 425 575 c 128,-1,31
 415 575 415 575 407.5 582.5 c 128,-1,24
 400 590 400 590 400 600 c 128,-1,25
400 200 m 128,-1,33
 400 210 400 210 407.5 217.5 c 128,-1,34
 415 225 415 225 425 225 c 128,-1,35
 435 225 435 225 442.5 217.5 c 128,-1,36
 450 210 450 210 450 200 c 128,-1,37
 450 190 450 190 442.5 182.5 c 128,-1,38
 435 175 435 175 425 175 c 128,-1,39
 415 175 415 175 407.5 182.5 c 128,-1,32
 400 190 400 190 400 200 c 128,-1,33
275 800 m 128,-1,41
 275 810 275 810 282.5 817.5 c 128,-1,42
 290 825 290 825 300 825 c 128,-1,43
 310 825 310 825 317.5 817.5 c 128,-1,44
 325 810 325 810 325 800 c 128,-1,45
 325 790 325 790 317.5 782.5 c 128,-1,46
 310 775 310 775 300 775 c 128,-1,47
 290 775 290 775 282.5 782.5 c 128,-1,40
 275 790 275 790 275 800 c 128,-1,41
EndSplineSet
Validated: 2049
EndChar

StartChar: M
Encoding: 77 77 60
Width: 600
GlyphClass: 1
Flags: W
HStem: -25 50<275.183 324.817> 175 50<400.183 449.817> 575 50<400.183 449.817>
VStem: 275 50<-24.8169 24.8169> 400 50<175.183 224.817 575.183 624.817>
LayerCount: 2
Fore
SplineSet
400 200 m 128,-1,1
 400 210 400 210 407.5 217.5 c 128,-1,2
 415 225 415 225 425 225 c 128,-1,3
 435 225 435 225 442.5 217.5 c 128,-1,4
 450 210 450 210 450 200 c 128,-1,5
 450 190 450 190 442.5 182.5 c 128,-1,6
 435 175 435 175 425 175 c 128,-1,7
 415 175 415 175 407.5 182.5 c 128,-1,0
 400 190 400 190 400 200 c 128,-1,1
400 600 m 128,-1,9
 400 610 400 610 407.5 617.5 c 128,-1,10
 415 625 415 625 425 625 c 128,-1,11
 435 625 435 625 442.5 617.5 c 128,-1,12
 450 610 450 610 450 600 c 128,-1,13
 450 590 450 590 442.5 582.5 c 128,-1,14
 435 575 435 575 425 575 c 128,-1,15
 415 575 415 575 407.5 582.5 c 128,-1,8
 400 590 400 590 400 600 c 128,-1,9
275 0 m 128,-1,17
 275 10 275 10 282.5 17.5 c 128,-1,18
 290 25 290 25 300 25 c 128,-1,19
 310 25 310 25 317.5 17.5 c 128,-1,20
 325 10 325 10 325 0 c 128,-1,21
 325 -10 325 -10 317.5 -17.5 c 128,-1,22
 310 -25 310 -25 300 -25 c 128,-1,23
 290 -25 290 -25 282.5 -17.5 c 128,-1,16
 275 -10 275 -10 275 0 c 128,-1,17
EndSplineSet
Validated: 1
EndChar

StartChar: N
Encoding: 78 78 61
Width: 600
GlyphClass: 1
Flags: W
HStem: -25 50<275.183 324.817> 175 50<150.183 199.817> 575 50<400.183 449.817>
VStem: 150 50<175.183 224.817> 275 50<-24.8169 24.8169> 400 50<575.183 624.817>
CounterMasks: 1 1c
LayerCount: 2
Fore
SplineSet
400 600 m 128,-1,1
 400 610 400 610 407.5 617.5 c 128,-1,2
 415 625 415 625 425 625 c 128,-1,3
 435 625 435 625 442.5 617.5 c 128,-1,4
 450 610 450 610 450 600 c 128,-1,5
 450 590 450 590 442.5 582.5 c 128,-1,6
 435 575 435 575 425 575 c 128,-1,7
 415 575 415 575 407.5 582.5 c 128,-1,0
 400 590 400 590 400 600 c 128,-1,1
150 200 m 128,-1,9
 150 210 150 210 157.5 217.5 c 128,-1,10
 165 225 165 225 175 225 c 128,-1,11
 185 225 185 225 192.5 217.5 c 128,-1,12
 200 210 200 210 200 200 c 128,-1,13
 200 190 200 190 192.5 182.5 c 128,-1,14
 185 175 185 175 175 175 c 128,-1,15
 165 175 165 175 157.5 182.5 c 128,-1,8
 150 190 150 190 150 200 c 128,-1,9
275 0 m 128,-1,17
 275 10 275 10 282.5 17.5 c 128,-1,18
 290 25 290 25 300 25 c 128,-1,19
 310 25 310 25 317.5 17.5 c 128,-1,20
 325 10 325 10 325 0 c 128,-1,21
 325 -10 325 -10 317.5 -17.5 c 128,-1,22
 310 -25 310 -25 300 -25 c 128,-1,23
 290 -25 290 -25 282.5 -17.5 c 128,-1,16
 275 -10 275 -10 275 0 c 128,-1,17
EndSplineSet
Validated: 1
EndChar

StartChar: O
Encoding: 79 79 62
Width: 600
GlyphClass: 1
Flags: W
HStem: -25 50<275.183 324.817> 175 50<400.183 449.817> 375 50<275.183 324.817>
VStem: 275 50<-24.8169 24.8169 375.183 424.817> 400 50<175.183 224.817>
CounterMasks: 1 e0
LayerCount: 2
Fore
SplineSet
400 200 m 128,-1,1
 400 210 400 210 407.5 217.5 c 128,-1,2
 415 225 415 225 425 225 c 128,-1,3
 435 225 435 225 442.5 217.5 c 128,-1,4
 450 210 450 210 450 200 c 128,-1,5
 450 190 450 190 442.5 182.5 c 128,-1,6
 435 175 435 175 425 175 c 128,-1,7
 415 175 415 175 407.5 182.5 c 128,-1,0
 400 190 400 190 400 200 c 128,-1,1
275 400 m 128,-1,9
 275 410 275 410 282.5 417.5 c 128,-1,10
 290 425 290 425 300 425 c 128,-1,11
 310 425 310 425 317.5 417.5 c 128,-1,12
 325 410 325 410 325 400 c 128,-1,13
 325 390 325 390 317.5 382.5 c 128,-1,14
 310 375 310 375 300 375 c 128,-1,15
 290 375 290 375 282.5 382.5 c 128,-1,8
 275 390 275 390 275 400 c 128,-1,9
275 0 m 128,-1,17
 275 10 275 10 282.5 17.5 c 128,-1,18
 290 25 290 25 300 25 c 128,-1,19
 310 25 310 25 317.5 17.5 c 128,-1,20
 325 10 325 10 325 0 c 128,-1,21
 325 -10 325 -10 317.5 -17.5 c 128,-1,22
 310 -25 310 -25 300 -25 c 128,-1,23
 290 -25 290 -25 282.5 -17.5 c 128,-1,16
 275 -10 275 -10 275 0 c 128,-1,17
EndSplineSet
Validated: 1
EndChar

StartChar: P
Encoding: 80 80 63
Width: 600
GlyphClass: 1
Flags: W
HStem: -25 50<275.183 324.817> 575 50<150.183 199.817 400.183 449.817>
VStem: 150 50<575.183 624.817> 275 50<-24.8169 24.8169> 400 50<575.183 624.817>
CounterMasks: 1 38
LayerCount: 2
Fore
SplineSet
400 600 m 128,-1,1
 400 610 400 610 407.5 617.5 c 128,-1,2
 415 625 415 625 425 625 c 128,-1,3
 435 625 435 625 442.5 617.5 c 128,-1,4
 450 610 450 610 450 600 c 128,-1,5
 450 590 450 590 442.5 582.5 c 128,-1,6
 435 575 435 575 425 575 c 128,-1,7
 415 575 415 575 407.5 582.5 c 128,-1,0
 400 590 400 590 400 600 c 128,-1,1
150 600 m 128,-1,9
 150 610 150 610 157.5 617.5 c 128,-1,10
 165 625 165 625 175 625 c 128,-1,11
 185 625 185 625 192.5 617.5 c 128,-1,12
 200 610 200 610 200 600 c 128,-1,13
 200 590 200 590 192.5 582.5 c 128,-1,14
 185 575 185 575 175 575 c 128,-1,15
 165 575 165 575 157.5 582.5 c 128,-1,8
 150 590 150 590 150 600 c 128,-1,9
275 0 m 128,-1,17
 275 10 275 10 282.5 17.5 c 128,-1,18
 290 25 290 25 300 25 c 128,-1,19
 310 25 310 25 317.5 17.5 c 128,-1,20
 325 10 325 10 325 0 c 128,-1,21
 325 -10 325 -10 317.5 -17.5 c 128,-1,22
 310 -25 310 -25 300 -25 c 128,-1,23
 290 -25 290 -25 282.5 -17.5 c 128,-1,16
 275 -10 275 -10 275 0 c 128,-1,17
EndSplineSet
Validated: 1
EndChar

StartChar: Q
Encoding: 81 81 64
Width: 600
GlyphClass: 1
Flags: W
HStem: -25 50<275.183 324.817> 175 50<150.183 199.817 400.183 449.817>
VStem: 150 50<175.183 224.817> 275 50<-24.8169 24.8169> 400 50<175.183 224.817>
CounterMasks: 1 38
LayerCount: 2
Fore
SplineSet
400 200 m 128,-1,1
 400 210 400 210 407.5 217.5 c 128,-1,2
 415 225 415 225 425 225 c 128,-1,3
 435 225 435 225 442.5 217.5 c 128,-1,4
 450 210 450 210 450 200 c 128,-1,5
 450 190 450 190 442.5 182.5 c 128,-1,6
 435 175 435 175 425 175 c 128,-1,7
 415 175 415 175 407.5 182.5 c 128,-1,0
 400 190 400 190 400 200 c 128,-1,1
150 200 m 128,-1,9
 150 210 150 210 157.5 217.5 c 128,-1,10
 165 225 165 225 175 225 c 128,-1,11
 185 225 185 225 192.5 217.5 c 128,-1,12
 200 210 200 210 200 200 c 128,-1,13
 200 190 200 190 192.5 182.5 c 128,-1,14
 185 175 185 175 175 175 c 128,-1,15
 165 175 165 175 157.5 182.5 c 128,-1,8
 150 190 150 190 150 200 c 128,-1,9
275 0 m 128,-1,17
 275 10 275 10 282.5 17.5 c 128,-1,18
 290 25 290 25 300 25 c 128,-1,19
 310 25 310 25 317.5 17.5 c 128,-1,20
 325 10 325 10 325 0 c 128,-1,21
 325 -10 325 -10 317.5 -17.5 c 128,-1,22
 310 -25 310 -25 300 -25 c 128,-1,23
 290 -25 290 -25 282.5 -17.5 c 128,-1,16
 275 -10 275 -10 275 0 c 128,-1,17
EndSplineSet
Validated: 1
EndChar

StartChar: R
Encoding: 82 82 65
Width: 600
GlyphClass: 1
Flags: W
HStem: -25 50<275.183 324.817> 175 50<400.183 449.817> 575 50<150.183 199.817 400.183 449.817> 775 50<275.183 324.817>
VStem: 150 50<575.183 624.817> 275 50<-24.8169 24.8169 775.183 824.817> 400 50<175.183 224.817 575.183 624.817>
CounterMasks: 1 0e
LayerCount: 2
Fore
SplineSet
275 0 m 128,-1,1
 275 10 275 10 282.5 17.5 c 128,-1,2
 290 25 290 25 300 25 c 128,-1,3
 310 25 310 25 317.5 17.5 c 128,-1,4
 325 10 325 10 325 0 c 128,-1,5
 325 -10 325 -10 317.5 -17.5 c 128,-1,6
 310 -25 310 -25 300 -25 c 128,-1,7
 290 -25 290 -25 282.5 -17.5 c 128,-1,0
 275 -10 275 -10 275 0 c 128,-1,1
400 600 m 128,-1,9
 400 610 400 610 407.5 617.5 c 128,-1,10
 415 625 415 625 425 625 c 128,-1,11
 435 625 435 625 442.5 617.5 c 128,-1,12
 450 610 450 610 450 600 c 128,-1,13
 450 590 450 590 442.5 582.5 c 128,-1,14
 435 575 435 575 425 575 c 128,-1,15
 415 575 415 575 407.5 582.5 c 128,-1,8
 400 590 400 590 400 600 c 128,-1,9
150 600 m 128,-1,17
 150 610 150 610 157.5 617.5 c 128,-1,18
 165 625 165 625 175 625 c 128,-1,19
 185 625 185 625 192.5 617.5 c 128,-1,20
 200 610 200 610 200 600 c 128,-1,21
 200 590 200 590 192.5 582.5 c 128,-1,22
 185 575 185 575 175 575 c 128,-1,23
 165 575 165 575 157.5 582.5 c 128,-1,16
 150 590 150 590 150 600 c 128,-1,17
400 200 m 128,-1,25
 400 210 400 210 407.5 217.5 c 128,-1,26
 415 225 415 225 425 225 c 128,-1,27
 435 225 435 225 442.5 217.5 c 128,-1,28
 450 210 450 210 450 200 c 128,-1,29
 450 190 450 190 442.5 182.5 c 128,-1,30
 435 175 435 175 425 175 c 128,-1,31
 415 175 415 175 407.5 182.5 c 128,-1,24
 400 190 400 190 400 200 c 128,-1,25
275 800 m 128,-1,33
 275 810 275 810 282.5 817.5 c 128,-1,34
 290 825 290 825 300 825 c 128,-1,35
 310 825 310 825 317.5 817.5 c 128,-1,36
 325 810 325 810 325 800 c 128,-1,37
 325 790 325 790 317.5 782.5 c 128,-1,38
 310 775 310 775 300 775 c 128,-1,39
 290 775 290 775 282.5 782.5 c 128,-1,32
 275 790 275 790 275 800 c 128,-1,33
EndSplineSet
Validated: 2049
EndChar

StartChar: S
Encoding: 83 83 66
Width: 600
GlyphClass: 1
Flags: W
HStem: -25 50<275.183 324.817> 175 50<150.183 199.817> 575 50<150.183 199.817 400.183 449.817>
VStem: 150 50<175.183 224.817 575.183 624.817> 275 50<-24.8169 24.8169> 400 50<575.183 624.817>
CounterMasks: 1 1c
LayerCount: 2
Fore
SplineSet
150 200 m 128,-1,1
 150 210 150 210 157.5 217.5 c 128,-1,2
 165 225 165 225 175 225 c 128,-1,3
 185 225 185 225 192.5 217.5 c 128,-1,4
 200 210 200 210 200 200 c 128,-1,5
 200 190 200 190 192.5 182.5 c 128,-1,6
 185 175 185 175 175 175 c 128,-1,7
 165 175 165 175 157.5 182.5 c 128,-1,0
 150 190 150 190 150 200 c 128,-1,1
150 600 m 128,-1,9
 150 610 150 610 157.5 617.5 c 128,-1,10
 165 625 165 625 175 625 c 128,-1,11
 185 625 185 625 192.5 617.5 c 128,-1,12
 200 610 200 610 200 600 c 128,-1,13
 200 590 200 590 192.5 582.5 c 128,-1,14
 185 575 185 575 175 575 c 128,-1,15
 165 575 165 575 157.5 582.5 c 128,-1,8
 150 590 150 590 150 600 c 128,-1,9
400 600 m 128,-1,17
 400 610 400 610 407.5 617.5 c 128,-1,18
 415 625 415 625 425 625 c 128,-1,19
 435 625 435 625 442.5 617.5 c 128,-1,20
 450 610 450 610 450 600 c 128,-1,21
 450 590 450 590 442.5 582.5 c 128,-1,22
 435 575 435 575 425 575 c 128,-1,23
 415 575 415 575 407.5 582.5 c 128,-1,16
 400 590 400 590 400 600 c 128,-1,17
275 0 m 128,-1,25
 275 10 275 10 282.5 17.5 c 128,-1,26
 290 25 290 25 300 25 c 128,-1,27
 310 25 310 25 317.5 17.5 c 128,-1,28
 325 10 325 10 325 0 c 128,-1,29
 325 -10 325 -10 317.5 -17.5 c 128,-1,30
 310 -25 310 -25 300 -25 c 128,-1,31
 290 -25 290 -25 282.5 -17.5 c 128,-1,24
 275 -10 275 -10 275 0 c 128,-1,25
EndSplineSet
Validated: 2049
EndChar

StartChar: T
Encoding: 84 84 67
Width: 600
GlyphClass: 1
Flags: W
HStem: -25 50<275.183 324.817> 175 50<400.183 449.817> 575 50<150.183 199.817>
VStem: 150 50<575.183 624.817> 275 50<-24.8169 24.8169> 400 50<175.183 224.817>
CounterMasks: 1 1c
LayerCount: 2
Fore
SplineSet
400 200 m 128,-1,1
 400 210 400 210 407.5 217.5 c 128,-1,2
 415 225 415 225 425 225 c 128,-1,3
 435 225 435 225 442.5 217.5 c 128,-1,4
 450 210 450 210 450 200 c 128,-1,5
 450 190 450 190 442.5 182.5 c 128,-1,6
 435 175 435 175 425 175 c 128,-1,7
 415 175 415 175 407.5 182.5 c 128,-1,0
 400 190 400 190 400 200 c 128,-1,1
150 600 m 128,-1,9
 150 610 150 610 157.5 617.5 c 128,-1,10
 165 625 165 625 175 625 c 128,-1,11
 185 625 185 625 192.5 617.5 c 128,-1,12
 200 610 200 610 200 600 c 128,-1,13
 200 590 200 590 192.5 582.5 c 128,-1,14
 185 575 185 575 175 575 c 128,-1,15
 165 575 165 575 157.5 582.5 c 128,-1,8
 150 590 150 590 150 600 c 128,-1,9
275 0 m 128,-1,17
 275 10 275 10 282.5 17.5 c 128,-1,18
 290 25 290 25 300 25 c 128,-1,19
 310 25 310 25 317.5 17.5 c 128,-1,20
 325 10 325 10 325 0 c 128,-1,21
 325 -10 325 -10 317.5 -17.5 c 128,-1,22
 310 -25 310 -25 300 -25 c 128,-1,23
 290 -25 290 -25 282.5 -17.5 c 128,-1,16
 275 -10 275 -10 275 0 c 128,-1,17
EndSplineSet
Validated: 1
EndChar

StartChar: U
Encoding: 85 85 68
Width: 600
GlyphClass: 1
Flags: W
HStem: -25 50<275.183 324.817> 175 50<150.183 199.817> 375 50<275.183 324.817>
VStem: 150 50<175.183 224.817> 275 50<-24.8169 24.8169 375.183 424.817>
CounterMasks: 1 e0
LayerCount: 2
Fore
SplineSet
150 200 m 128,-1,1
 150 210 150 210 157.5 217.5 c 128,-1,2
 165 225 165 225 175 225 c 128,-1,3
 185 225 185 225 192.5 217.5 c 128,-1,4
 200 210 200 210 200 200 c 128,-1,5
 200 190 200 190 192.5 182.5 c 128,-1,6
 185 175 185 175 175 175 c 128,-1,7
 165 175 165 175 157.5 182.5 c 128,-1,0
 150 190 150 190 150 200 c 128,-1,1
275 400 m 128,-1,9
 275 410 275 410 282.5 417.5 c 128,-1,10
 290 425 290 425 300 425 c 128,-1,11
 310 425 310 425 317.5 417.5 c 128,-1,12
 325 410 325 410 325 400 c 128,-1,13
 325 390 325 390 317.5 382.5 c 128,-1,14
 310 375 310 375 300 375 c 128,-1,15
 290 375 290 375 282.5 382.5 c 128,-1,8
 275 390 275 390 275 400 c 128,-1,9
275 0 m 128,-1,17
 275 10 275 10 282.5 17.5 c 128,-1,18
 290 25 290 25 300 25 c 128,-1,19
 310 25 310 25 317.5 17.5 c 128,-1,20
 325 10 325 10 325 0 c 128,-1,21
 325 -10 325 -10 317.5 -17.5 c 128,-1,22
 310 -25 310 -25 300 -25 c 128,-1,23
 290 -25 290 -25 282.5 -17.5 c 128,-1,16
 275 -10 275 -10 275 0 c 128,-1,17
EndSplineSet
Validated: 1
EndChar

StartChar: V
Encoding: 86 86 69
Width: 600
GlyphClass: 1
Flags: W
HStem: -25 50<275.183 324.817> 175 50<150.183 199.817 400.183 449.817> 575 50<400.183 449.817> 775 50<275.183 324.817>
VStem: 150 50<175.183 224.817> 275 50<-24.8169 24.8169 775.183 824.817> 400 50<175.183 224.817 575.183 624.817>
CounterMasks: 1 0e
LayerCount: 2
Fore
SplineSet
275 0 m 128,-1,1
 275 10 275 10 282.5 17.5 c 128,-1,2
 290 25 290 25 300 25 c 128,-1,3
 310 25 310 25 317.5 17.5 c 128,-1,4
 325 10 325 10 325 0 c 128,-1,5
 325 -10 325 -10 317.5 -17.5 c 128,-1,6
 310 -25 310 -25 300 -25 c 128,-1,7
 290 -25 290 -25 282.5 -17.5 c 128,-1,0
 275 -10 275 -10 275 0 c 128,-1,1
400 200 m 128,-1,9
 400 210 400 210 407.5 217.5 c 128,-1,10
 415 225 415 225 425 225 c 128,-1,11
 435 225 435 225 442.5 217.5 c 128,-1,12
 450 210 450 210 450 200 c 128,-1,13
 450 190 450 190 442.5 182.5 c 128,-1,14
 435 175 435 175 425 175 c 128,-1,15
 415 175 415 175 407.5 182.5 c 128,-1,8
 400 190 400 190 400 200 c 128,-1,9
400 600 m 128,-1,17
 400 610 400 610 407.5 617.5 c 128,-1,18
 415 625 415 625 425 625 c 128,-1,19
 435 625 435 625 442.5 617.5 c 128,-1,20
 450 610 450 610 450 600 c 128,-1,21
 450 590 450 590 442.5 582.5 c 128,-1,22
 435 575 435 575 425 575 c 128,-1,23
 415 575 415 575 407.5 582.5 c 128,-1,16
 400 590 400 590 400 600 c 128,-1,17
150 200 m 128,-1,25
 150 210 150 210 157.5 217.5 c 128,-1,26
 165 225 165 225 175 225 c 128,-1,27
 185 225 185 225 192.5 217.5 c 128,-1,28
 200 210 200 210 200 200 c 128,-1,29
 200 190 200 190 192.5 182.5 c 128,-1,30
 185 175 185 175 175 175 c 128,-1,31
 165 175 165 175 157.5 182.5 c 128,-1,24
 150 190 150 190 150 200 c 128,-1,25
275 800 m 128,-1,33
 275 810 275 810 282.5 817.5 c 128,-1,34
 290 825 290 825 300 825 c 128,-1,35
 310 825 310 825 317.5 817.5 c 128,-1,36
 325 810 325 810 325 800 c 128,-1,37
 325 790 325 790 317.5 782.5 c 128,-1,38
 310 775 310 775 300 775 c 128,-1,39
 290 775 290 775 282.5 782.5 c 128,-1,32
 275 790 275 790 275 800 c 128,-1,33
EndSplineSet
Validated: 2049
EndChar

StartChar: W
Encoding: 87 87 70
Width: 600
GlyphClass: 1
Flags: W
HStem: -25 50<275.183 324.817> 175 50<150.183 199.817> 375 50<275.183 324.817> 575 50<150.183 199.817>
VStem: 150 50<175.183 224.817 575.183 624.817> 275 50<-24.8169 24.8169 375.183 424.817>
LayerCount: 2
Fore
SplineSet
150 200 m 128,-1,1
 150 210 150 210 157.5 217.5 c 128,-1,2
 165 225 165 225 175 225 c 128,-1,3
 185 225 185 225 192.5 217.5 c 128,-1,4
 200 210 200 210 200 200 c 128,-1,5
 200 190 200 190 192.5 182.5 c 128,-1,6
 185 175 185 175 175 175 c 128,-1,7
 165 175 165 175 157.5 182.5 c 128,-1,0
 150 190 150 190 150 200 c 128,-1,1
275 400 m 128,-1,9
 275 410 275 410 282.5 417.5 c 128,-1,10
 290 425 290 425 300 425 c 128,-1,11
 310 425 310 425 317.5 417.5 c 128,-1,12
 325 410 325 410 325 400 c 128,-1,13
 325 390 325 390 317.5 382.5 c 128,-1,14
 310 375 310 375 300 375 c 128,-1,15
 290 375 290 375 282.5 382.5 c 128,-1,8
 275 390 275 390 275 400 c 128,-1,9
150 600 m 128,-1,17
 150 610 150 610 157.5 617.5 c 128,-1,18
 165 625 165 625 175 625 c 128,-1,19
 185 625 185 625 192.5 617.5 c 128,-1,20
 200 610 200 610 200 600 c 128,-1,21
 200 590 200 590 192.5 582.5 c 128,-1,22
 185 575 185 575 175 575 c 128,-1,23
 165 575 165 575 157.5 582.5 c 128,-1,16
 150 590 150 590 150 600 c 128,-1,17
275 0 m 128,-1,25
 275 10 275 10 282.5 17.5 c 128,-1,26
 290 25 290 25 300 25 c 128,-1,27
 310 25 310 25 317.5 17.5 c 128,-1,28
 325 10 325 10 325 0 c 128,-1,29
 325 -10 325 -10 317.5 -17.5 c 128,-1,30
 310 -25 310 -25 300 -25 c 128,-1,31
 290 -25 290 -25 282.5 -17.5 c 128,-1,24
 275 -10 275 -10 275 0 c 128,-1,25
EndSplineSet
Validated: 2049
EndChar

StartChar: X
Encoding: 88 88 71
Width: 600
GlyphClass: 1
Flags: W
HStem: -25 50<275.183 324.817> 175 50<400.183 449.817> 575 50<150.183 199.817 400.183 449.817>
VStem: 150 50<575.183 624.817> 275 50<-24.8169 24.8169> 400 50<175.183 224.817 575.183 624.817>
CounterMasks: 1 1c
LayerCount: 2
Fore
SplineSet
400 200 m 128,-1,1
 400 210 400 210 407.5 217.5 c 128,-1,2
 415 225 415 225 425 225 c 128,-1,3
 435 225 435 225 442.5 217.5 c 128,-1,4
 450 210 450 210 450 200 c 128,-1,5
 450 190 450 190 442.5 182.5 c 128,-1,6
 435 175 435 175 425 175 c 128,-1,7
 415 175 415 175 407.5 182.5 c 128,-1,0
 400 190 400 190 400 200 c 128,-1,1
150 600 m 128,-1,9
 150 610 150 610 157.5 617.5 c 128,-1,10
 165 625 165 625 175 625 c 128,-1,11
 185 625 185 625 192.5 617.5 c 128,-1,12
 200 610 200 610 200 600 c 128,-1,13
 200 590 200 590 192.5 582.5 c 128,-1,14
 185 575 185 575 175 575 c 128,-1,15
 165 575 165 575 157.5 582.5 c 128,-1,8
 150 590 150 590 150 600 c 128,-1,9
400 600 m 128,-1,17
 400 610 400 610 407.5 617.5 c 128,-1,18
 415 625 415 625 425 625 c 128,-1,19
 435 625 435 625 442.5 617.5 c 128,-1,20
 450 610 450 610 450 600 c 128,-1,21
 450 590 450 590 442.5 582.5 c 128,-1,22
 435 575 435 575 425 575 c 128,-1,23
 415 575 415 575 407.5 582.5 c 128,-1,16
 400 590 400 590 400 600 c 128,-1,17
275 0 m 128,-1,25
 275 10 275 10 282.5 17.5 c 128,-1,26
 290 25 290 25 300 25 c 128,-1,27
 310 25 310 25 317.5 17.5 c 128,-1,28
 325 10 325 10 325 0 c 128,-1,29
 325 -10 325 -10 317.5 -17.5 c 128,-1,30
 310 -25 310 -25 300 -25 c 128,-1,31
 290 -25 290 -25 282.5 -17.5 c 128,-1,24
 275 -10 275 -10 275 0 c 128,-1,25
EndSplineSet
Validated: 2049
EndChar

StartChar: Z
Encoding: 90 90 72
Width: 600
GlyphClass: 1
Flags: W
HStem: -25 50<275.183 324.817> 175 50<150.183 199.817> 575 50<150.183 199.817 400.183 449.817> 775 50<275.183 324.817>
VStem: 150 50<175.183 224.817 575.183 624.817> 275 50<-24.8169 24.8169 775.183 824.817> 400 50<575.183 624.817>
CounterMasks: 1 0e
LayerCount: 2
Fore
SplineSet
275 0 m 128,-1,1
 275 10 275 10 282.5 17.5 c 128,-1,2
 290 25 290 25 300 25 c 128,-1,3
 310 25 310 25 317.5 17.5 c 128,-1,4
 325 10 325 10 325 0 c 128,-1,5
 325 -10 325 -10 317.5 -17.5 c 128,-1,6
 310 -25 310 -25 300 -25 c 128,-1,7
 290 -25 290 -25 282.5 -17.5 c 128,-1,0
 275 -10 275 -10 275 0 c 128,-1,1
150 600 m 128,-1,9
 150 610 150 610 157.5 617.5 c 128,-1,10
 165 625 165 625 175 625 c 128,-1,11
 185 625 185 625 192.5 617.5 c 128,-1,12
 200 610 200 610 200 600 c 128,-1,13
 200 590 200 590 192.5 582.5 c 128,-1,14
 185 575 185 575 175 575 c 128,-1,15
 165 575 165 575 157.5 582.5 c 128,-1,8
 150 590 150 590 150 600 c 128,-1,9
150 200 m 128,-1,17
 150 210 150 210 157.5 217.5 c 128,-1,18
 165 225 165 225 175 225 c 128,-1,19
 185 225 185 225 192.5 217.5 c 128,-1,20
 200 210 200 210 200 200 c 128,-1,21
 200 190 200 190 192.5 182.5 c 128,-1,22
 185 175 185 175 175 175 c 128,-1,23
 165 175 165 175 157.5 182.5 c 128,-1,16
 150 190 150 190 150 200 c 128,-1,17
400 600 m 128,-1,25
 400 610 400 610 407.5 617.5 c 128,-1,26
 415 625 415 625 425 625 c 128,-1,27
 435 625 435 625 442.5 617.5 c 128,-1,28
 450 610 450 610 450 600 c 128,-1,29
 450 590 450 590 442.5 582.5 c 128,-1,30
 435 575 435 575 425 575 c 128,-1,31
 415 575 415 575 407.5 582.5 c 128,-1,24
 400 590 400 590 400 600 c 128,-1,25
275 800 m 128,-1,33
 275 810 275 810 282.5 817.5 c 128,-1,34
 290 825 290 825 300 825 c 128,-1,35
 310 825 310 825 317.5 817.5 c 128,-1,36
 325 810 325 810 325 800 c 128,-1,37
 325 790 325 790 317.5 782.5 c 128,-1,38
 310 775 310 775 300 775 c 128,-1,39
 290 775 290 775 282.5 782.5 c 128,-1,32
 275 790 275 790 275 800 c 128,-1,33
EndSplineSet
Validated: 2049
EndChar

StartChar: a
Encoding: 97 97 73
Width: 600
GlyphClass: 1
Flags: W
HStem: -25 50<275.183 324.817> 375 50<275.183 324.817> 575 50<150.183 199.817>
VStem: 150 50<575.183 624.817> 275 50<-24.8169 24.8169 375.183 424.817>
LayerCount: 2
Fore
SplineSet
275 400 m 128,-1,1
 275 410 275 410 282.5 417.5 c 128,-1,2
 290 425 290 425 300 425 c 128,-1,3
 310 425 310 425 317.5 417.5 c 128,-1,4
 325 410 325 410 325 400 c 128,-1,5
 325 390 325 390 317.5 382.5 c 128,-1,6
 310 375 310 375 300 375 c 128,-1,7
 290 375 290 375 282.5 382.5 c 128,-1,0
 275 390 275 390 275 400 c 128,-1,1
150 600 m 128,-1,9
 150 610 150 610 157.5 617.5 c 128,-1,10
 165 625 165 625 175 625 c 128,-1,11
 185 625 185 625 192.5 617.5 c 128,-1,12
 200 610 200 610 200 600 c 128,-1,13
 200 590 200 590 192.5 582.5 c 128,-1,14
 185 575 185 575 175 575 c 128,-1,15
 165 575 165 575 157.5 582.5 c 128,-1,8
 150 590 150 590 150 600 c 128,-1,9
275 0 m 128,-1,17
 275 10 275 10 282.5 17.5 c 128,-1,18
 290 25 290 25 300 25 c 128,-1,19
 310 25 310 25 317.5 17.5 c 128,-1,20
 325 10 325 10 325 0 c 128,-1,21
 325 -10 325 -10 317.5 -17.5 c 128,-1,22
 310 -25 310 -25 300 -25 c 128,-1,23
 290 -25 290 -25 282.5 -17.5 c 128,-1,16
 275 -10 275 -10 275 0 c 128,-1,17
EndSplineSet
Validated: 1
EndChar

StartChar: b
Encoding: 98 98 74
Width: 600
GlyphClass: 1
Flags: W
HStem: -25 50<275.183 324.817> 575 50<150.183 199.817 400.183 449.817> 775 50<275.183 324.817>
VStem: 150 50<575.183 624.817> 275 50<-24.8169 24.8169 775.183 824.817> 400 50<575.183 624.817>
CounterMasks: 1 1c
LayerCount: 2
Fore
SplineSet
275 0 m 128,-1,1
 275 10 275 10 282.5 17.5 c 128,-1,2
 290 25 290 25 300 25 c 128,-1,3
 310 25 310 25 317.5 17.5 c 128,-1,4
 325 10 325 10 325 0 c 128,-1,5
 325 -10 325 -10 317.5 -17.5 c 128,-1,6
 310 -25 310 -25 300 -25 c 128,-1,7
 290 -25 290 -25 282.5 -17.5 c 128,-1,0
 275 -10 275 -10 275 0 c 128,-1,1
150 600 m 128,-1,9
 150 610 150 610 157.5 617.5 c 128,-1,10
 165 625 165 625 175 625 c 128,-1,11
 185 625 185 625 192.5 617.5 c 128,-1,12
 200 610 200 610 200 600 c 128,-1,13
 200 590 200 590 192.5 582.5 c 128,-1,14
 185 575 185 575 175 575 c 128,-1,15
 165 575 165 575 157.5 582.5 c 128,-1,8
 150 590 150 590 150 600 c 128,-1,9
400 600 m 128,-1,17
 400 610 400 610 407.5 617.5 c 128,-1,18
 415 625 415 625 425 625 c 128,-1,19
 435 625 435 625 442.5 617.5 c 128,-1,20
 450 610 450 610 450 600 c 128,-1,21
 450 590 450 590 442.5 582.5 c 128,-1,22
 435 575 435 575 425 575 c 128,-1,23
 415 575 415 575 407.5 582.5 c 128,-1,16
 400 590 400 590 400 600 c 128,-1,17
275 800 m 128,-1,25
 275 810 275 810 282.5 817.5 c 128,-1,26
 290 825 290 825 300 825 c 128,-1,27
 310 825 310 825 317.5 817.5 c 128,-1,28
 325 810 325 810 325 800 c 128,-1,29
 325 790 325 790 317.5 782.5 c 128,-1,30
 310 775 310 775 300 775 c 128,-1,31
 290 775 290 775 282.5 782.5 c 128,-1,24
 275 790 275 790 275 800 c 128,-1,25
EndSplineSet
Validated: 2049
EndChar

StartChar: c
Encoding: 99 99 75
Width: 600
GlyphClass: 1
Flags: W
HStem: -25 50<275.183 324.817> 175 50<150.183 199.817 400.183 449.817> 575 50<150.183 199.817>
VStem: 150 50<175.183 224.817 575.183 624.817> 275 50<-24.8169 24.8169> 400 50<175.183 224.817>
CounterMasks: 1 1c
LayerCount: 2
Fore
SplineSet
400 200 m 128,-1,1
 400 210 400 210 407.5 217.5 c 128,-1,2
 415 225 415 225 425 225 c 128,-1,3
 435 225 435 225 442.5 217.5 c 128,-1,4
 450 210 450 210 450 200 c 128,-1,5
 450 190 450 190 442.5 182.5 c 128,-1,6
 435 175 435 175 425 175 c 128,-1,7
 415 175 415 175 407.5 182.5 c 128,-1,0
 400 190 400 190 400 200 c 128,-1,1
150 600 m 128,-1,9
 150 610 150 610 157.5 617.5 c 128,-1,10
 165 625 165 625 175 625 c 128,-1,11
 185 625 185 625 192.5 617.5 c 128,-1,12
 200 610 200 610 200 600 c 128,-1,13
 200 590 200 590 192.5 582.5 c 128,-1,14
 185 575 185 575 175 575 c 128,-1,15
 165 575 165 575 157.5 582.5 c 128,-1,8
 150 590 150 590 150 600 c 128,-1,9
150 200 m 128,-1,17
 150 210 150 210 157.5 217.5 c 128,-1,18
 165 225 165 225 175 225 c 128,-1,19
 185 225 185 225 192.5 217.5 c 128,-1,20
 200 210 200 210 200 200 c 128,-1,21
 200 190 200 190 192.5 182.5 c 128,-1,22
 185 175 185 175 175 175 c 128,-1,23
 165 175 165 175 157.5 182.5 c 128,-1,16
 150 190 150 190 150 200 c 128,-1,17
275 0 m 128,-1,25
 275 10 275 10 282.5 17.5 c 128,-1,26
 290 25 290 25 300 25 c 128,-1,27
 310 25 310 25 317.5 17.5 c 128,-1,28
 325 10 325 10 325 0 c 128,-1,29
 325 -10 325 -10 317.5 -17.5 c 128,-1,30
 310 -25 310 -25 300 -25 c 128,-1,31
 290 -25 290 -25 282.5 -17.5 c 128,-1,24
 275 -10 275 -10 275 0 c 128,-1,25
EndSplineSet
Validated: 2049
EndChar

StartChar: d
Encoding: 100 100 76
Width: 600
GlyphClass: 1
Flags: W
HStem: -25 50<275.183 324.817> 175 50<400.183 449.817> 575 50<150.183 199.817> 775 50<275.183 324.817>
VStem: 150 50<575.183 624.817> 275 50<-24.8169 24.8169 775.183 824.817> 400 50<175.183 224.817>
CounterMasks: 1 0e
LayerCount: 2
Fore
SplineSet
275 0 m 128,-1,1
 275 10 275 10 282.5 17.5 c 128,-1,2
 290 25 290 25 300 25 c 128,-1,3
 310 25 310 25 317.5 17.5 c 128,-1,4
 325 10 325 10 325 0 c 128,-1,5
 325 -10 325 -10 317.5 -17.5 c 128,-1,6
 310 -25 310 -25 300 -25 c 128,-1,7
 290 -25 290 -25 282.5 -17.5 c 128,-1,0
 275 -10 275 -10 275 0 c 128,-1,1
150 600 m 128,-1,9
 150 610 150 610 157.5 617.5 c 128,-1,10
 165 625 165 625 175 625 c 128,-1,11
 185 625 185 625 192.5 617.5 c 128,-1,12
 200 610 200 610 200 600 c 128,-1,13
 200 590 200 590 192.5 582.5 c 128,-1,14
 185 575 185 575 175 575 c 128,-1,15
 165 575 165 575 157.5 582.5 c 128,-1,8
 150 590 150 590 150 600 c 128,-1,9
400 200 m 128,-1,17
 400 210 400 210 407.5 217.5 c 128,-1,18
 415 225 415 225 425 225 c 128,-1,19
 435 225 435 225 442.5 217.5 c 128,-1,20
 450 210 450 210 450 200 c 128,-1,21
 450 190 450 190 442.5 182.5 c 128,-1,22
 435 175 435 175 425 175 c 128,-1,23
 415 175 415 175 407.5 182.5 c 128,-1,16
 400 190 400 190 400 200 c 128,-1,17
275 800 m 128,-1,25
 275 810 275 810 282.5 817.5 c 128,-1,26
 290 825 290 825 300 825 c 128,-1,27
 310 825 310 825 317.5 817.5 c 128,-1,28
 325 810 325 810 325 800 c 128,-1,29
 325 790 325 790 317.5 782.5 c 128,-1,30
 310 775 310 775 300 775 c 128,-1,31
 290 775 290 775 282.5 782.5 c 128,-1,24
 275 790 275 790 275 800 c 128,-1,25
EndSplineSet
Validated: 2049
EndChar

StartChar: e
Encoding: 101 101 77
Width: 600
GlyphClass: 1
Flags: W
HStem: -25 50<275.183 324.817> 375 50<275.183 324.817> 575 50<400.183 449.817>
VStem: 275 50<-24.8169 24.8169 375.183 424.817> 400 50<575.183 624.817>
LayerCount: 2
Fore
SplineSet
400 600 m 128,-1,1
 400 610 400 610 407.5 617.5 c 128,-1,2
 415 625 415 625 425 625 c 128,-1,3
 435 625 435 625 442.5 617.5 c 128,-1,4
 450 610 450 610 450 600 c 128,-1,5
 450 590 450 590 442.5 582.5 c 128,-1,6
 435 575 435 575 425 575 c 128,-1,7
 415 575 415 575 407.5 582.5 c 128,-1,0
 400 590 400 590 400 600 c 128,-1,1
275 400 m 128,-1,9
 275 410 275 410 282.5 417.5 c 128,-1,10
 290 425 290 425 300 425 c 128,-1,11
 310 425 310 425 317.5 417.5 c 128,-1,12
 325 410 325 410 325 400 c 128,-1,13
 325 390 325 390 317.5 382.5 c 128,-1,14
 310 375 310 375 300 375 c 128,-1,15
 290 375 290 375 282.5 382.5 c 128,-1,8
 275 390 275 390 275 400 c 128,-1,9
275 0 m 128,-1,17
 275 10 275 10 282.5 17.5 c 128,-1,18
 290 25 290 25 300 25 c 128,-1,19
 310 25 310 25 317.5 17.5 c 128,-1,20
 325 10 325 10 325 0 c 128,-1,21
 325 -10 325 -10 317.5 -17.5 c 128,-1,22
 310 -25 310 -25 300 -25 c 128,-1,23
 290 -25 290 -25 282.5 -17.5 c 128,-1,16
 275 -10 275 -10 275 0 c 128,-1,17
EndSplineSet
Validated: 1
EndChar

StartChar: f
Encoding: 102 102 78
Width: 600
GlyphClass: 1
Flags: W
HStem: -25 50<275.183 324.817> 175 50<150.183 199.817 400.183 449.817> 575 50<400.183 449.817>
VStem: 150 50<175.183 224.817> 275 50<-24.8169 24.8169> 400 50<175.183 224.817 575.183 624.817>
CounterMasks: 1 1c
LayerCount: 2
Fore
SplineSet
400 200 m 128,-1,1
 400 210 400 210 407.5 217.5 c 128,-1,2
 415 225 415 225 425 225 c 128,-1,3
 435 225 435 225 442.5 217.5 c 128,-1,4
 450 210 450 210 450 200 c 128,-1,5
 450 190 450 190 442.5 182.5 c 128,-1,6
 435 175 435 175 425 175 c 128,-1,7
 415 175 415 175 407.5 182.5 c 128,-1,0
 400 190 400 190 400 200 c 128,-1,1
400 600 m 128,-1,9
 400 610 400 610 407.5 617.5 c 128,-1,10
 415 625 415 625 425 625 c 128,-1,11
 435 625 435 625 442.5 617.5 c 128,-1,12
 450 610 450 610 450 600 c 128,-1,13
 450 590 450 590 442.5 582.5 c 128,-1,14
 435 575 435 575 425 575 c 128,-1,15
 415 575 415 575 407.5 582.5 c 128,-1,8
 400 590 400 590 400 600 c 128,-1,9
150 200 m 128,-1,17
 150 210 150 210 157.5 217.5 c 128,-1,18
 165 225 165 225 175 225 c 128,-1,19
 185 225 185 225 192.5 217.5 c 128,-1,20
 200 210 200 210 200 200 c 128,-1,21
 200 190 200 190 192.5 182.5 c 128,-1,22
 185 175 185 175 175 175 c 128,-1,23
 165 175 165 175 157.5 182.5 c 128,-1,16
 150 190 150 190 150 200 c 128,-1,17
275 0 m 128,-1,25
 275 10 275 10 282.5 17.5 c 128,-1,26
 290 25 290 25 300 25 c 128,-1,27
 310 25 310 25 317.5 17.5 c 128,-1,28
 325 10 325 10 325 0 c 128,-1,29
 325 -10 325 -10 317.5 -17.5 c 128,-1,30
 310 -25 310 -25 300 -25 c 128,-1,31
 290 -25 290 -25 282.5 -17.5 c 128,-1,24
 275 -10 275 -10 275 0 c 128,-1,25
EndSplineSet
Validated: 2049
EndChar

StartChar: g
Encoding: 103 103 79
Width: 600
GlyphClass: 1
Flags: W
HStem: -25 50<275.183 324.817> 175 50<150.183 199.817> 575 50<150.183 199.817> 775 50<275.183 324.817>
VStem: 150 50<175.183 224.817 575.183 624.817> 275 50<-24.8169 24.8169 775.183 824.817>
LayerCount: 2
Fore
SplineSet
275 0 m 128,-1,1
 275 10 275 10 282.5 17.5 c 128,-1,2
 290 25 290 25 300 25 c 128,-1,3
 310 25 310 25 317.5 17.5 c 128,-1,4
 325 10 325 10 325 0 c 128,-1,5
 325 -10 325 -10 317.5 -17.5 c 128,-1,6
 310 -25 310 -25 300 -25 c 128,-1,7
 290 -25 290 -25 282.5 -17.5 c 128,-1,0
 275 -10 275 -10 275 0 c 128,-1,1
150 600 m 128,-1,9
 150 610 150 610 157.5 617.5 c 128,-1,10
 165 625 165 625 175 625 c 128,-1,11
 185 625 185 625 192.5 617.5 c 128,-1,12
 200 610 200 610 200 600 c 128,-1,13
 200 590 200 590 192.5 582.5 c 128,-1,14
 185 575 185 575 175 575 c 128,-1,15
 165 575 165 575 157.5 582.5 c 128,-1,8
 150 590 150 590 150 600 c 128,-1,9
150 200 m 128,-1,17
 150 210 150 210 157.5 217.5 c 128,-1,18
 165 225 165 225 175 225 c 128,-1,19
 185 225 185 225 192.5 217.5 c 128,-1,20
 200 210 200 210 200 200 c 128,-1,21
 200 190 200 190 192.5 182.5 c 128,-1,22
 185 175 185 175 175 175 c 128,-1,23
 165 175 165 175 157.5 182.5 c 128,-1,16
 150 190 150 190 150 200 c 128,-1,17
275 800 m 128,-1,25
 275 810 275 810 282.5 817.5 c 128,-1,26
 290 825 290 825 300 825 c 128,-1,27
 310 825 310 825 317.5 817.5 c 128,-1,28
 325 810 325 810 325 800 c 128,-1,29
 325 790 325 790 317.5 782.5 c 128,-1,30
 310 775 310 775 300 775 c 128,-1,31
 290 775 290 775 282.5 782.5 c 128,-1,24
 275 790 275 790 275 800 c 128,-1,25
EndSplineSet
Validated: 2049
EndChar

StartChar: h
Encoding: 104 104 80
Width: 600
GlyphClass: 1
Flags: W
HStem: -25 50<275.183 324.817> 175 50<150.183 199.817 400.183 449.817> 575 50<150.183 199.817 400.183 449.817>
VStem: 150 50<175.183 224.817 575.183 624.817> 275 50<-24.8169 24.8169> 400 50<175.183 224.817 575.183 624.817>
CounterMasks: 1 1c
LayerCount: 2
Fore
SplineSet
400 200 m 128,-1,1
 400 210 400 210 407.5 217.5 c 128,-1,2
 415 225 415 225 425 225 c 128,-1,3
 435 225 435 225 442.5 217.5 c 128,-1,4
 450 210 450 210 450 200 c 128,-1,5
 450 190 450 190 442.5 182.5 c 128,-1,6
 435 175 435 175 425 175 c 128,-1,7
 415 175 415 175 407.5 182.5 c 128,-1,0
 400 190 400 190 400 200 c 128,-1,1
400 600 m 128,-1,9
 400 610 400 610 407.5 617.5 c 128,-1,10
 415 625 415 625 425 625 c 128,-1,11
 435 625 435 625 442.5 617.5 c 128,-1,12
 450 610 450 610 450 600 c 128,-1,13
 450 590 450 590 442.5 582.5 c 128,-1,14
 435 575 435 575 425 575 c 128,-1,15
 415 575 415 575 407.5 582.5 c 128,-1,8
 400 590 400 590 400 600 c 128,-1,9
150 600 m 128,-1,17
 150 610 150 610 157.5 617.5 c 128,-1,18
 165 625 165 625 175 625 c 128,-1,19
 185 625 185 625 192.5 617.5 c 128,-1,20
 200 610 200 610 200 600 c 128,-1,21
 200 590 200 590 192.5 582.5 c 128,-1,22
 185 575 185 575 175 575 c 128,-1,23
 165 575 165 575 157.5 582.5 c 128,-1,16
 150 590 150 590 150 600 c 128,-1,17
150 200 m 128,-1,25
 150 210 150 210 157.5 217.5 c 128,-1,26
 165 225 165 225 175 225 c 128,-1,27
 185 225 185 225 192.5 217.5 c 128,-1,28
 200 210 200 210 200 200 c 128,-1,29
 200 190 200 190 192.5 182.5 c 128,-1,30
 185 175 185 175 175 175 c 128,-1,31
 165 175 165 175 157.5 182.5 c 128,-1,24
 150 190 150 190 150 200 c 128,-1,25
275 0 m 128,-1,33
 275 10 275 10 282.5 17.5 c 128,-1,34
 290 25 290 25 300 25 c 128,-1,35
 310 25 310 25 317.5 17.5 c 128,-1,36
 325 10 325 10 325 0 c 128,-1,37
 325 -10 325 -10 317.5 -17.5 c 128,-1,38
 310 -25 310 -25 300 -25 c 128,-1,39
 290 -25 290 -25 282.5 -17.5 c 128,-1,32
 275 -10 275 -10 275 0 c 128,-1,33
EndSplineSet
Validated: 2049
EndChar

StartChar: j
Encoding: 106 106 81
Width: 600
GlyphClass: 1
Flags: W
HStem: -25 50<275.183 324.817> 175 50<150.183 199.817 400.183 449.817> 575 50<150.183 199.817> 775 50<275.183 324.817>
VStem: 150 50<175.183 224.817 575.183 624.817> 275 50<-24.8169 24.8169 775.183 824.817> 400 50<175.183 224.817>
CounterMasks: 1 0e
LayerCount: 2
Fore
SplineSet
275 0 m 128,-1,1
 275 10 275 10 282.5 17.5 c 128,-1,2
 290 25 290 25 300 25 c 128,-1,3
 310 25 310 25 317.5 17.5 c 128,-1,4
 325 10 325 10 325 0 c 128,-1,5
 325 -10 325 -10 317.5 -17.5 c 128,-1,6
 310 -25 310 -25 300 -25 c 128,-1,7
 290 -25 290 -25 282.5 -17.5 c 128,-1,0
 275 -10 275 -10 275 0 c 128,-1,1
150 200 m 128,-1,9
 150 210 150 210 157.5 217.5 c 128,-1,10
 165 225 165 225 175 225 c 128,-1,11
 185 225 185 225 192.5 217.5 c 128,-1,12
 200 210 200 210 200 200 c 128,-1,13
 200 190 200 190 192.5 182.5 c 128,-1,14
 185 175 185 175 175 175 c 128,-1,15
 165 175 165 175 157.5 182.5 c 128,-1,8
 150 190 150 190 150 200 c 128,-1,9
150 600 m 128,-1,17
 150 610 150 610 157.5 617.5 c 128,-1,18
 165 625 165 625 175 625 c 128,-1,19
 185 625 185 625 192.5 617.5 c 128,-1,20
 200 610 200 610 200 600 c 128,-1,21
 200 590 200 590 192.5 582.5 c 128,-1,22
 185 575 185 575 175 575 c 128,-1,23
 165 575 165 575 157.5 582.5 c 128,-1,16
 150 590 150 590 150 600 c 128,-1,17
400 200 m 128,-1,25
 400 210 400 210 407.5 217.5 c 128,-1,26
 415 225 415 225 425 225 c 128,-1,27
 435 225 435 225 442.5 217.5 c 128,-1,28
 450 210 450 210 450 200 c 128,-1,29
 450 190 450 190 442.5 182.5 c 128,-1,30
 435 175 435 175 425 175 c 128,-1,31
 415 175 415 175 407.5 182.5 c 128,-1,24
 400 190 400 190 400 200 c 128,-1,25
275 800 m 128,-1,33
 275 810 275 810 282.5 817.5 c 128,-1,34
 290 825 290 825 300 825 c 128,-1,35
 310 825 310 825 317.5 817.5 c 128,-1,36
 325 810 325 810 325 800 c 128,-1,37
 325 790 325 790 317.5 782.5 c 128,-1,38
 310 775 310 775 300 775 c 128,-1,39
 290 775 290 775 282.5 782.5 c 128,-1,32
 275 790 275 790 275 800 c 128,-1,33
EndSplineSet
Validated: 2049
EndChar

StartChar: k
Encoding: 107 107 82
Width: 600
GlyphClass: 1
Flags: W
HStem: -25 50<275.183 324.817> 175 50<150.183 199.817> 575 50<150.183 199.817>
VStem: 150 50<175.183 224.817 575.183 624.817> 275 50<-24.8169 24.8169>
LayerCount: 2
Fore
SplineSet
150 200 m 128,-1,1
 150 210 150 210 157.5 217.5 c 128,-1,2
 165 225 165 225 175 225 c 128,-1,3
 185 225 185 225 192.5 217.5 c 128,-1,4
 200 210 200 210 200 200 c 128,-1,5
 200 190 200 190 192.5 182.5 c 128,-1,6
 185 175 185 175 175 175 c 128,-1,7
 165 175 165 175 157.5 182.5 c 128,-1,0
 150 190 150 190 150 200 c 128,-1,1
150 600 m 128,-1,9
 150 610 150 610 157.5 617.5 c 128,-1,10
 165 625 165 625 175 625 c 128,-1,11
 185 625 185 625 192.5 617.5 c 128,-1,12
 200 610 200 610 200 600 c 128,-1,13
 200 590 200 590 192.5 582.5 c 128,-1,14
 185 575 185 575 175 575 c 128,-1,15
 165 575 165 575 157.5 582.5 c 128,-1,8
 150 590 150 590 150 600 c 128,-1,9
275 0 m 128,-1,17
 275 10 275 10 282.5 17.5 c 128,-1,18
 290 25 290 25 300 25 c 128,-1,19
 310 25 310 25 317.5 17.5 c 128,-1,20
 325 10 325 10 325 0 c 128,-1,21
 325 -10 325 -10 317.5 -17.5 c 128,-1,22
 310 -25 310 -25 300 -25 c 128,-1,23
 290 -25 290 -25 282.5 -17.5 c 128,-1,16
 275 -10 275 -10 275 0 c 128,-1,17
EndSplineSet
Validated: 1
EndChar

StartChar: l
Encoding: 108 108 83
Width: 600
GlyphClass: 1
Flags: W
HStem: -25 50<275.183 324.817> 175 50<150.183 199.817 400.183 449.817> 575 50<150.183 199.817 400.183 449.817> 775 50<275.183 324.817>
VStem: 150 50<175.183 224.817 575.183 624.817> 275 50<-24.8169 24.8169 775.183 824.817> 400 50<175.183 224.817 575.183 624.817>
CounterMasks: 1 0e
LayerCount: 2
Fore
SplineSet
275 0 m 128,-1,1
 275 10 275 10 282.5 17.5 c 128,-1,2
 290 25 290 25 300 25 c 128,-1,3
 310 25 310 25 317.5 17.5 c 128,-1,4
 325 10 325 10 325 0 c 128,-1,5
 325 -10 325 -10 317.5 -17.5 c 128,-1,6
 310 -25 310 -25 300 -25 c 128,-1,7
 290 -25 290 -25 282.5 -17.5 c 128,-1,0
 275 -10 275 -10 275 0 c 128,-1,1
150 200 m 128,-1,9
 150 210 150 210 157.5 217.5 c 128,-1,10
 165 225 165 225 175 225 c 128,-1,11
 185 225 185 225 192.5 217.5 c 128,-1,12
 200 210 200 210 200 200 c 128,-1,13
 200 190 200 190 192.5 182.5 c 128,-1,14
 185 175 185 175 175 175 c 128,-1,15
 165 175 165 175 157.5 182.5 c 128,-1,8
 150 190 150 190 150 200 c 128,-1,9
150 600 m 128,-1,17
 150 610 150 610 157.5 617.5 c 128,-1,18
 165 625 165 625 175 625 c 128,-1,19
 185 625 185 625 192.5 617.5 c 128,-1,20
 200 610 200 610 200 600 c 128,-1,21
 200 590 200 590 192.5 582.5 c 128,-1,22
 185 575 185 575 175 575 c 128,-1,23
 165 575 165 575 157.5 582.5 c 128,-1,16
 150 590 150 590 150 600 c 128,-1,17
400 600 m 128,-1,25
 400 610 400 610 407.5 617.5 c 128,-1,26
 415 625 415 625 425 625 c 128,-1,27
 435 625 435 625 442.5 617.5 c 128,-1,28
 450 610 450 610 450 600 c 128,-1,29
 450 590 450 590 442.5 582.5 c 128,-1,30
 435 575 435 575 425 575 c 128,-1,31
 415 575 415 575 407.5 582.5 c 128,-1,24
 400 590 400 590 400 600 c 128,-1,25
400 200 m 128,-1,33
 400 210 400 210 407.5 217.5 c 128,-1,34
 415 225 415 225 425 225 c 128,-1,35
 435 225 435 225 442.5 217.5 c 128,-1,36
 450 210 450 210 450 200 c 128,-1,37
 450 190 450 190 442.5 182.5 c 128,-1,38
 435 175 435 175 425 175 c 128,-1,39
 415 175 415 175 407.5 182.5 c 128,-1,32
 400 190 400 190 400 200 c 128,-1,33
275 800 m 128,-1,41
 275 810 275 810 282.5 817.5 c 128,-1,42
 290 825 290 825 300 825 c 128,-1,43
 310 825 310 825 317.5 817.5 c 128,-1,44
 325 810 325 810 325 800 c 128,-1,45
 325 790 325 790 317.5 782.5 c 128,-1,46
 310 775 310 775 300 775 c 128,-1,47
 290 775 290 775 282.5 782.5 c 128,-1,40
 275 790 275 790 275 800 c 128,-1,41
EndSplineSet
Validated: 2049
EndChar

StartChar: m
Encoding: 109 109 84
Width: 600
GlyphClass: 1
Flags: W
HStem: -25 50<275.183 324.817> 175 50<400.183 449.817> 575 50<400.183 449.817>
VStem: 275 50<-24.8169 24.8169> 400 50<175.183 224.817 575.183 624.817>
LayerCount: 2
Fore
SplineSet
400 200 m 128,-1,1
 400 210 400 210 407.5 217.5 c 128,-1,2
 415 225 415 225 425 225 c 128,-1,3
 435 225 435 225 442.5 217.5 c 128,-1,4
 450 210 450 210 450 200 c 128,-1,5
 450 190 450 190 442.5 182.5 c 128,-1,6
 435 175 435 175 425 175 c 128,-1,7
 415 175 415 175 407.5 182.5 c 128,-1,0
 400 190 400 190 400 200 c 128,-1,1
400 600 m 128,-1,9
 400 610 400 610 407.5 617.5 c 128,-1,10
 415 625 415 625 425 625 c 128,-1,11
 435 625 435 625 442.5 617.5 c 128,-1,12
 450 610 450 610 450 600 c 128,-1,13
 450 590 450 590 442.5 582.5 c 128,-1,14
 435 575 435 575 425 575 c 128,-1,15
 415 575 415 575 407.5 582.5 c 128,-1,8
 400 590 400 590 400 600 c 128,-1,9
275 0 m 128,-1,17
 275 10 275 10 282.5 17.5 c 128,-1,18
 290 25 290 25 300 25 c 128,-1,19
 310 25 310 25 317.5 17.5 c 128,-1,20
 325 10 325 10 325 0 c 128,-1,21
 325 -10 325 -10 317.5 -17.5 c 128,-1,22
 310 -25 310 -25 300 -25 c 128,-1,23
 290 -25 290 -25 282.5 -17.5 c 128,-1,16
 275 -10 275 -10 275 0 c 128,-1,17
EndSplineSet
Validated: 1
EndChar

StartChar: n
Encoding: 110 110 85
Width: 600
GlyphClass: 1
Flags: W
HStem: -25 50<275.183 324.817> 175 50<150.183 199.817> 575 50<400.183 449.817>
VStem: 150 50<175.183 224.817> 275 50<-24.8169 24.8169> 400 50<575.183 624.817>
CounterMasks: 1 1c
LayerCount: 2
Fore
SplineSet
400 600 m 128,-1,1
 400 610 400 610 407.5 617.5 c 128,-1,2
 415 625 415 625 425 625 c 128,-1,3
 435 625 435 625 442.5 617.5 c 128,-1,4
 450 610 450 610 450 600 c 128,-1,5
 450 590 450 590 442.5 582.5 c 128,-1,6
 435 575 435 575 425 575 c 128,-1,7
 415 575 415 575 407.5 582.5 c 128,-1,0
 400 590 400 590 400 600 c 128,-1,1
150 200 m 128,-1,9
 150 210 150 210 157.5 217.5 c 128,-1,10
 165 225 165 225 175 225 c 128,-1,11
 185 225 185 225 192.5 217.5 c 128,-1,12
 200 210 200 210 200 200 c 128,-1,13
 200 190 200 190 192.5 182.5 c 128,-1,14
 185 175 185 175 175 175 c 128,-1,15
 165 175 165 175 157.5 182.5 c 128,-1,8
 150 190 150 190 150 200 c 128,-1,9
275 0 m 128,-1,17
 275 10 275 10 282.5 17.5 c 128,-1,18
 290 25 290 25 300 25 c 128,-1,19
 310 25 310 25 317.5 17.5 c 128,-1,20
 325 10 325 10 325 0 c 128,-1,21
 325 -10 325 -10 317.5 -17.5 c 128,-1,22
 310 -25 310 -25 300 -25 c 128,-1,23
 290 -25 290 -25 282.5 -17.5 c 128,-1,16
 275 -10 275 -10 275 0 c 128,-1,17
EndSplineSet
Validated: 1
EndChar

StartChar: o
Encoding: 111 111 86
Width: 600
GlyphClass: 1
Flags: W
HStem: -25 50<275.183 324.817> 175 50<400.183 449.817> 375 50<275.183 324.817>
VStem: 275 50<-24.8169 24.8169 375.183 424.817> 400 50<175.183 224.817>
CounterMasks: 1 e0
LayerCount: 2
Fore
SplineSet
400 200 m 128,-1,1
 400 210 400 210 407.5 217.5 c 128,-1,2
 415 225 415 225 425 225 c 128,-1,3
 435 225 435 225 442.5 217.5 c 128,-1,4
 450 210 450 210 450 200 c 128,-1,5
 450 190 450 190 442.5 182.5 c 128,-1,6
 435 175 435 175 425 175 c 128,-1,7
 415 175 415 175 407.5 182.5 c 128,-1,0
 400 190 400 190 400 200 c 128,-1,1
275 400 m 128,-1,9
 275 410 275 410 282.5 417.5 c 128,-1,10
 290 425 290 425 300 425 c 128,-1,11
 310 425 310 425 317.5 417.5 c 128,-1,12
 325 410 325 410 325 400 c 128,-1,13
 325 390 325 390 317.5 382.5 c 128,-1,14
 310 375 310 375 300 375 c 128,-1,15
 290 375 290 375 282.5 382.5 c 128,-1,8
 275 390 275 390 275 400 c 128,-1,9
275 0 m 128,-1,17
 275 10 275 10 282.5 17.5 c 128,-1,18
 290 25 290 25 300 25 c 128,-1,19
 310 25 310 25 317.5 17.5 c 128,-1,20
 325 10 325 10 325 0 c 128,-1,21
 325 -10 325 -10 317.5 -17.5 c 128,-1,22
 310 -25 310 -25 300 -25 c 128,-1,23
 290 -25 290 -25 282.5 -17.5 c 128,-1,16
 275 -10 275 -10 275 0 c 128,-1,17
EndSplineSet
Validated: 1
EndChar

StartChar: p
Encoding: 112 112 87
Width: 600
GlyphClass: 1
Flags: W
HStem: -25 50<275.183 324.817> 575 50<150.183 199.817 400.183 449.817>
VStem: 150 50<575.183 624.817> 275 50<-24.8169 24.8169> 400 50<575.183 624.817>
CounterMasks: 1 38
LayerCount: 2
Fore
SplineSet
400 600 m 128,-1,1
 400 610 400 610 407.5 617.5 c 128,-1,2
 415 625 415 625 425 625 c 128,-1,3
 435 625 435 625 442.5 617.5 c 128,-1,4
 450 610 450 610 450 600 c 128,-1,5
 450 590 450 590 442.5 582.5 c 128,-1,6
 435 575 435 575 425 575 c 128,-1,7
 415 575 415 575 407.5 582.5 c 128,-1,0
 400 590 400 590 400 600 c 128,-1,1
150 600 m 128,-1,9
 150 610 150 610 157.5 617.5 c 128,-1,10
 165 625 165 625 175 625 c 128,-1,11
 185 625 185 625 192.5 617.5 c 128,-1,12
 200 610 200 610 200 600 c 128,-1,13
 200 590 200 590 192.5 582.5 c 128,-1,14
 185 575 185 575 175 575 c 128,-1,15
 165 575 165 575 157.5 582.5 c 128,-1,8
 150 590 150 590 150 600 c 128,-1,9
275 0 m 128,-1,17
 275 10 275 10 282.5 17.5 c 128,-1,18
 290 25 290 25 300 25 c 128,-1,19
 310 25 310 25 317.5 17.5 c 128,-1,20
 325 10 325 10 325 0 c 128,-1,21
 325 -10 325 -10 317.5 -17.5 c 128,-1,22
 310 -25 310 -25 300 -25 c 128,-1,23
 290 -25 290 -25 282.5 -17.5 c 128,-1,16
 275 -10 275 -10 275 0 c 128,-1,17
EndSplineSet
Validated: 1
EndChar

StartChar: q
Encoding: 113 113 88
Width: 600
GlyphClass: 1
Flags: W
HStem: -25 50<275.183 324.817> 175 50<150.183 199.817 400.183 449.817>
VStem: 150 50<175.183 224.817> 275 50<-24.8169 24.8169> 400 50<175.183 224.817>
CounterMasks: 1 38
LayerCount: 2
Fore
SplineSet
400 200 m 128,-1,1
 400 210 400 210 407.5 217.5 c 128,-1,2
 415 225 415 225 425 225 c 128,-1,3
 435 225 435 225 442.5 217.5 c 128,-1,4
 450 210 450 210 450 200 c 128,-1,5
 450 190 450 190 442.5 182.5 c 128,-1,6
 435 175 435 175 425 175 c 128,-1,7
 415 175 415 175 407.5 182.5 c 128,-1,0
 400 190 400 190 400 200 c 128,-1,1
150 200 m 128,-1,9
 150 210 150 210 157.5 217.5 c 128,-1,10
 165 225 165 225 175 225 c 128,-1,11
 185 225 185 225 192.5 217.5 c 128,-1,12
 200 210 200 210 200 200 c 128,-1,13
 200 190 200 190 192.5 182.5 c 128,-1,14
 185 175 185 175 175 175 c 128,-1,15
 165 175 165 175 157.5 182.5 c 128,-1,8
 150 190 150 190 150 200 c 128,-1,9
275 0 m 128,-1,17
 275 10 275 10 282.5 17.5 c 128,-1,18
 290 25 290 25 300 25 c 128,-1,19
 310 25 310 25 317.5 17.5 c 128,-1,20
 325 10 325 10 325 0 c 128,-1,21
 325 -10 325 -10 317.5 -17.5 c 128,-1,22
 310 -25 310 -25 300 -25 c 128,-1,23
 290 -25 290 -25 282.5 -17.5 c 128,-1,16
 275 -10 275 -10 275 0 c 128,-1,17
EndSplineSet
Validated: 1
EndChar

StartChar: r
Encoding: 114 114 89
Width: 600
GlyphClass: 1
Flags: W
HStem: -25 50<275.183 324.817> 175 50<400.183 449.817> 575 50<150.183 199.817 400.183 449.817> 775 50<275.183 324.817>
VStem: 150 50<575.183 624.817> 275 50<-24.8169 24.8169 775.183 824.817> 400 50<175.183 224.817 575.183 624.817>
CounterMasks: 1 0e
LayerCount: 2
Fore
SplineSet
275 0 m 128,-1,1
 275 10 275 10 282.5 17.5 c 128,-1,2
 290 25 290 25 300 25 c 128,-1,3
 310 25 310 25 317.5 17.5 c 128,-1,4
 325 10 325 10 325 0 c 128,-1,5
 325 -10 325 -10 317.5 -17.5 c 128,-1,6
 310 -25 310 -25 300 -25 c 128,-1,7
 290 -25 290 -25 282.5 -17.5 c 128,-1,0
 275 -10 275 -10 275 0 c 128,-1,1
400 600 m 128,-1,9
 400 610 400 610 407.5 617.5 c 128,-1,10
 415 625 415 625 425 625 c 128,-1,11
 435 625 435 625 442.5 617.5 c 128,-1,12
 450 610 450 610 450 600 c 128,-1,13
 450 590 450 590 442.5 582.5 c 128,-1,14
 435 575 435 575 425 575 c 128,-1,15
 415 575 415 575 407.5 582.5 c 128,-1,8
 400 590 400 590 400 600 c 128,-1,9
150 600 m 128,-1,17
 150 610 150 610 157.5 617.5 c 128,-1,18
 165 625 165 625 175 625 c 128,-1,19
 185 625 185 625 192.5 617.5 c 128,-1,20
 200 610 200 610 200 600 c 128,-1,21
 200 590 200 590 192.5 582.5 c 128,-1,22
 185 575 185 575 175 575 c 128,-1,23
 165 575 165 575 157.5 582.5 c 128,-1,16
 150 590 150 590 150 600 c 128,-1,17
400 200 m 128,-1,25
 400 210 400 210 407.5 217.5 c 128,-1,26
 415 225 415 225 425 225 c 128,-1,27
 435 225 435 225 442.5 217.5 c 128,-1,28
 450 210 450 210 450 200 c 128,-1,29
 450 190 450 190 442.5 182.5 c 128,-1,30
 435 175 435 175 425 175 c 128,-1,31
 415 175 415 175 407.5 182.5 c 128,-1,24
 400 190 400 190 400 200 c 128,-1,25
275 800 m 128,-1,33
 275 810 275 810 282.5 817.5 c 128,-1,34
 290 825 290 825 300 825 c 128,-1,35
 310 825 310 825 317.5 817.5 c 128,-1,36
 325 810 325 810 325 800 c 128,-1,37
 325 790 325 790 317.5 782.5 c 128,-1,38
 310 775 310 775 300 775 c 128,-1,39
 290 775 290 775 282.5 782.5 c 128,-1,32
 275 790 275 790 275 800 c 128,-1,33
EndSplineSet
Validated: 2049
EndChar

StartChar: s
Encoding: 115 115 90
Width: 600
GlyphClass: 1
Flags: W
HStem: -25 50<275.183 324.817> 175 50<150.183 199.817> 575 50<150.183 199.817 400.183 449.817>
VStem: 150 50<175.183 224.817 575.183 624.817> 275 50<-24.8169 24.8169> 400 50<575.183 624.817>
CounterMasks: 1 1c
LayerCount: 2
Fore
SplineSet
150 200 m 128,-1,1
 150 210 150 210 157.5 217.5 c 128,-1,2
 165 225 165 225 175 225 c 128,-1,3
 185 225 185 225 192.5 217.5 c 128,-1,4
 200 210 200 210 200 200 c 128,-1,5
 200 190 200 190 192.5 182.5 c 128,-1,6
 185 175 185 175 175 175 c 128,-1,7
 165 175 165 175 157.5 182.5 c 128,-1,0
 150 190 150 190 150 200 c 128,-1,1
150 600 m 128,-1,9
 150 610 150 610 157.5 617.5 c 128,-1,10
 165 625 165 625 175 625 c 128,-1,11
 185 625 185 625 192.5 617.5 c 128,-1,12
 200 610 200 610 200 600 c 128,-1,13
 200 590 200 590 192.5 582.5 c 128,-1,14
 185 575 185 575 175 575 c 128,-1,15
 165 575 165 575 157.5 582.5 c 128,-1,8
 150 590 150 590 150 600 c 128,-1,9
400 600 m 128,-1,17
 400 610 400 610 407.5 617.5 c 128,-1,18
 415 625 415 625 425 625 c 128,-1,19
 435 625 435 625 442.5 617.5 c 128,-1,20
 450 610 450 610 450 600 c 128,-1,21
 450 590 450 590 442.5 582.5 c 128,-1,22
 435 575 435 575 425 575 c 128,-1,23
 415 575 415 575 407.5 582.5 c 128,-1,16
 400 590 400 590 400 600 c 128,-1,17
275 0 m 128,-1,25
 275 10 275 10 282.5 17.5 c 128,-1,26
 290 25 290 25 300 25 c 128,-1,27
 310 25 310 25 317.5 17.5 c 128,-1,28
 325 10 325 10 325 0 c 128,-1,29
 325 -10 325 -10 317.5 -17.5 c 128,-1,30
 310 -25 310 -25 300 -25 c 128,-1,31
 290 -25 290 -25 282.5 -17.5 c 128,-1,24
 275 -10 275 -10 275 0 c 128,-1,25
EndSplineSet
Validated: 2049
EndChar

StartChar: t
Encoding: 116 116 91
Width: 600
GlyphClass: 1
Flags: W
HStem: -25 50<275.183 324.817> 175 50<400.183 449.817> 575 50<150.183 199.817>
VStem: 150 50<575.183 624.817> 275 50<-24.8169 24.8169> 400 50<175.183 224.817>
CounterMasks: 1 1c
LayerCount: 2
Fore
SplineSet
400 200 m 128,-1,1
 400 210 400 210 407.5 217.5 c 128,-1,2
 415 225 415 225 425 225 c 128,-1,3
 435 225 435 225 442.5 217.5 c 128,-1,4
 450 210 450 210 450 200 c 128,-1,5
 450 190 450 190 442.5 182.5 c 128,-1,6
 435 175 435 175 425 175 c 128,-1,7
 415 175 415 175 407.5 182.5 c 128,-1,0
 400 190 400 190 400 200 c 128,-1,1
150 600 m 128,-1,9
 150 610 150 610 157.5 617.5 c 128,-1,10
 165 625 165 625 175 625 c 128,-1,11
 185 625 185 625 192.5 617.5 c 128,-1,12
 200 610 200 610 200 600 c 128,-1,13
 200 590 200 590 192.5 582.5 c 128,-1,14
 185 575 185 575 175 575 c 128,-1,15
 165 575 165 575 157.5 582.5 c 128,-1,8
 150 590 150 590 150 600 c 128,-1,9
275 0 m 128,-1,17
 275 10 275 10 282.5 17.5 c 128,-1,18
 290 25 290 25 300 25 c 128,-1,19
 310 25 310 25 317.5 17.5 c 128,-1,20
 325 10 325 10 325 0 c 128,-1,21
 325 -10 325 -10 317.5 -17.5 c 128,-1,22
 310 -25 310 -25 300 -25 c 128,-1,23
 290 -25 290 -25 282.5 -17.5 c 128,-1,16
 275 -10 275 -10 275 0 c 128,-1,17
EndSplineSet
Validated: 1
EndChar

StartChar: u
Encoding: 117 117 92
Width: 600
GlyphClass: 1
Flags: W
HStem: -25 50<275.183 324.817> 175 50<150.183 199.817> 375 50<275.183 324.817>
VStem: 150 50<175.183 224.817> 275 50<-24.8169 24.8169 375.183 424.817>
CounterMasks: 1 e0
LayerCount: 2
Fore
SplineSet
150 200 m 128,-1,1
 150 210 150 210 157.5 217.5 c 128,-1,2
 165 225 165 225 175 225 c 128,-1,3
 185 225 185 225 192.5 217.5 c 128,-1,4
 200 210 200 210 200 200 c 128,-1,5
 200 190 200 190 192.5 182.5 c 128,-1,6
 185 175 185 175 175 175 c 128,-1,7
 165 175 165 175 157.5 182.5 c 128,-1,0
 150 190 150 190 150 200 c 128,-1,1
275 400 m 128,-1,9
 275 410 275 410 282.5 417.5 c 128,-1,10
 290 425 290 425 300 425 c 128,-1,11
 310 425 310 425 317.5 417.5 c 128,-1,12
 325 410 325 410 325 400 c 128,-1,13
 325 390 325 390 317.5 382.5 c 128,-1,14
 310 375 310 375 300 375 c 128,-1,15
 290 375 290 375 282.5 382.5 c 128,-1,8
 275 390 275 390 275 400 c 128,-1,9
275 0 m 128,-1,17
 275 10 275 10 282.5 17.5 c 128,-1,18
 290 25 290 25 300 25 c 128,-1,19
 310 25 310 25 317.5 17.5 c 128,-1,20
 325 10 325 10 325 0 c 128,-1,21
 325 -10 325 -10 317.5 -17.5 c 128,-1,22
 310 -25 310 -25 300 -25 c 128,-1,23
 290 -25 290 -25 282.5 -17.5 c 128,-1,16
 275 -10 275 -10 275 0 c 128,-1,17
EndSplineSet
Validated: 1
EndChar

StartChar: v
Encoding: 118 118 93
Width: 600
GlyphClass: 1
Flags: W
HStem: -25 50<275.183 324.817> 175 50<150.183 199.817 400.183 449.817> 575 50<400.183 449.817> 775 50<275.183 324.817>
VStem: 150 50<175.183 224.817> 275 50<-24.8169 24.8169 775.183 824.817> 400 50<175.183 224.817 575.183 624.817>
CounterMasks: 1 0e
LayerCount: 2
Fore
SplineSet
275 0 m 128,-1,1
 275 10 275 10 282.5 17.5 c 128,-1,2
 290 25 290 25 300 25 c 128,-1,3
 310 25 310 25 317.5 17.5 c 128,-1,4
 325 10 325 10 325 0 c 128,-1,5
 325 -10 325 -10 317.5 -17.5 c 128,-1,6
 310 -25 310 -25 300 -25 c 128,-1,7
 290 -25 290 -25 282.5 -17.5 c 128,-1,0
 275 -10 275 -10 275 0 c 128,-1,1
400 200 m 128,-1,9
 400 210 400 210 407.5 217.5 c 128,-1,10
 415 225 415 225 425 225 c 128,-1,11
 435 225 435 225 442.5 217.5 c 128,-1,12
 450 210 450 210 450 200 c 128,-1,13
 450 190 450 190 442.5 182.5 c 128,-1,14
 435 175 435 175 425 175 c 128,-1,15
 415 175 415 175 407.5 182.5 c 128,-1,8
 400 190 400 190 400 200 c 128,-1,9
400 600 m 128,-1,17
 400 610 400 610 407.5 617.5 c 128,-1,18
 415 625 415 625 425 625 c 128,-1,19
 435 625 435 625 442.5 617.5 c 128,-1,20
 450 610 450 610 450 600 c 128,-1,21
 450 590 450 590 442.5 582.5 c 128,-1,22
 435 575 435 575 425 575 c 128,-1,23
 415 575 415 575 407.5 582.5 c 128,-1,16
 400 590 400 590 400 600 c 128,-1,17
150 200 m 128,-1,25
 150 210 150 210 157.5 217.5 c 128,-1,26
 165 225 165 225 175 225 c 128,-1,27
 185 225 185 225 192.5 217.5 c 128,-1,28
 200 210 200 210 200 200 c 128,-1,29
 200 190 200 190 192.5 182.5 c 128,-1,30
 185 175 185 175 175 175 c 128,-1,31
 165 175 165 175 157.5 182.5 c 128,-1,24
 150 190 150 190 150 200 c 128,-1,25
275 800 m 128,-1,33
 275 810 275 810 282.5 817.5 c 128,-1,34
 290 825 290 825 300 825 c 128,-1,35
 310 825 310 825 317.5 817.5 c 128,-1,36
 325 810 325 810 325 800 c 128,-1,37
 325 790 325 790 317.5 782.5 c 128,-1,38
 310 775 310 775 300 775 c 128,-1,39
 290 775 290 775 282.5 782.5 c 128,-1,32
 275 790 275 790 275 800 c 128,-1,33
EndSplineSet
Validated: 2049
EndChar

StartChar: w
Encoding: 119 119 94
Width: 600
GlyphClass: 1
Flags: W
HStem: -25 50<275.183 324.817> 175 50<150.183 199.817> 375 50<275.183 324.817> 575 50<150.183 199.817>
VStem: 150 50<175.183 224.817 575.183 624.817> 275 50<-24.8169 24.8169 375.183 424.817>
LayerCount: 2
Fore
SplineSet
150 200 m 128,-1,1
 150 210 150 210 157.5 217.5 c 128,-1,2
 165 225 165 225 175 225 c 128,-1,3
 185 225 185 225 192.5 217.5 c 128,-1,4
 200 210 200 210 200 200 c 128,-1,5
 200 190 200 190 192.5 182.5 c 128,-1,6
 185 175 185 175 175 175 c 128,-1,7
 165 175 165 175 157.5 182.5 c 128,-1,0
 150 190 150 190 150 200 c 128,-1,1
275 400 m 128,-1,9
 275 410 275 410 282.5 417.5 c 128,-1,10
 290 425 290 425 300 425 c 128,-1,11
 310 425 310 425 317.5 417.5 c 128,-1,12
 325 410 325 410 325 400 c 128,-1,13
 325 390 325 390 317.5 382.5 c 128,-1,14
 310 375 310 375 300 375 c 128,-1,15
 290 375 290 375 282.5 382.5 c 128,-1,8
 275 390 275 390 275 400 c 128,-1,9
150 600 m 128,-1,17
 150 610 150 610 157.5 617.5 c 128,-1,18
 165 625 165 625 175 625 c 128,-1,19
 185 625 185 625 192.5 617.5 c 128,-1,20
 200 610 200 610 200 600 c 128,-1,21
 200 590 200 590 192.5 582.5 c 128,-1,22
 185 575 185 575 175 575 c 128,-1,23
 165 575 165 575 157.5 582.5 c 128,-1,16
 150 590 150 590 150 600 c 128,-1,17
275 0 m 128,-1,25
 275 10 275 10 282.5 17.5 c 128,-1,26
 290 25 290 25 300 25 c 128,-1,27
 310 25 310 25 317.5 17.5 c 128,-1,28
 325 10 325 10 325 0 c 128,-1,29
 325 -10 325 -10 317.5 -17.5 c 128,-1,30
 310 -25 310 -25 300 -25 c 128,-1,31
 290 -25 290 -25 282.5 -17.5 c 128,-1,24
 275 -10 275 -10 275 0 c 128,-1,25
EndSplineSet
Validated: 2049
EndChar

StartChar: x
Encoding: 120 120 95
Width: 600
GlyphClass: 1
Flags: W
HStem: -25 50<275.183 324.817> 175 50<400.183 449.817> 575 50<150.183 199.817 400.183 449.817>
VStem: 150 50<575.183 624.817> 275 50<-24.8169 24.8169> 400 50<175.183 224.817 575.183 624.817>
CounterMasks: 1 1c
LayerCount: 2
Fore
SplineSet
400 200 m 128,-1,1
 400 210 400 210 407.5 217.5 c 128,-1,2
 415 225 415 225 425 225 c 128,-1,3
 435 225 435 225 442.5 217.5 c 128,-1,4
 450 210 450 210 450 200 c 128,-1,5
 450 190 450 190 442.5 182.5 c 128,-1,6
 435 175 435 175 425 175 c 128,-1,7
 415 175 415 175 407.5 182.5 c 128,-1,0
 400 190 400 190 400 200 c 128,-1,1
150 600 m 128,-1,9
 150 610 150 610 157.5 617.5 c 128,-1,10
 165 625 165 625 175 625 c 128,-1,11
 185 625 185 625 192.5 617.5 c 128,-1,12
 200 610 200 610 200 600 c 128,-1,13
 200 590 200 590 192.5 582.5 c 128,-1,14
 185 575 185 575 175 575 c 128,-1,15
 165 575 165 575 157.5 582.5 c 128,-1,8
 150 590 150 590 150 600 c 128,-1,9
400 600 m 128,-1,17
 400 610 400 610 407.5 617.5 c 128,-1,18
 415 625 415 625 425 625 c 128,-1,19
 435 625 435 625 442.5 617.5 c 128,-1,20
 450 610 450 610 450 600 c 128,-1,21
 450 590 450 590 442.5 582.5 c 128,-1,22
 435 575 435 575 425 575 c 128,-1,23
 415 575 415 575 407.5 582.5 c 128,-1,16
 400 590 400 590 400 600 c 128,-1,17
275 0 m 128,-1,25
 275 10 275 10 282.5 17.5 c 128,-1,26
 290 25 290 25 300 25 c 128,-1,27
 310 25 310 25 317.5 17.5 c 128,-1,28
 325 10 325 10 325 0 c 128,-1,29
 325 -10 325 -10 317.5 -17.5 c 128,-1,30
 310 -25 310 -25 300 -25 c 128,-1,31
 290 -25 290 -25 282.5 -17.5 c 128,-1,24
 275 -10 275 -10 275 0 c 128,-1,25
EndSplineSet
Validated: 2049
EndChar

StartChar: z
Encoding: 122 122 96
Width: 600
GlyphClass: 1
Flags: W
HStem: -25 50<275.183 324.817> 175 50<150.183 199.817> 575 50<150.183 199.817 400.183 449.817> 775 50<275.183 324.817>
VStem: 150 50<175.183 224.817 575.183 624.817> 275 50<-24.8169 24.8169 775.183 824.817> 400 50<575.183 624.817>
CounterMasks: 1 0e
LayerCount: 2
Fore
SplineSet
275 0 m 128,-1,1
 275 10 275 10 282.5 17.5 c 128,-1,2
 290 25 290 25 300 25 c 128,-1,3
 310 25 310 25 317.5 17.5 c 128,-1,4
 325 10 325 10 325 0 c 128,-1,5
 325 -10 325 -10 317.5 -17.5 c 128,-1,6
 310 -25 310 -25 300 -25 c 128,-1,7
 290 -25 290 -25 282.5 -17.5 c 128,-1,0
 275 -10 275 -10 275 0 c 128,-1,1
150 600 m 128,-1,9
 150 610 150 610 157.5 617.5 c 128,-1,10
 165 625 165 625 175 625 c 128,-1,11
 185 625 185 625 192.5 617.5 c 128,-1,12
 200 610 200 610 200 600 c 128,-1,13
 200 590 200 590 192.5 582.5 c 128,-1,14
 185 575 185 575 175 575 c 128,-1,15
 165 575 165 575 157.5 582.5 c 128,-1,8
 150 590 150 590 150 600 c 128,-1,9
150 200 m 128,-1,17
 150 210 150 210 157.5 217.5 c 128,-1,18
 165 225 165 225 175 225 c 128,-1,19
 185 225 185 225 192.5 217.5 c 128,-1,20
 200 210 200 210 200 200 c 128,-1,21
 200 190 200 190 192.5 182.5 c 128,-1,22
 185 175 185 175 175 175 c 128,-1,23
 165 175 165 175 157.5 182.5 c 128,-1,16
 150 190 150 190 150 200 c 128,-1,17
400 600 m 128,-1,25
 400 610 400 610 407.5 617.5 c 128,-1,26
 415 625 415 625 425 625 c 128,-1,27
 435 625 435 625 442.5 617.5 c 128,-1,28
 450 610 450 610 450 600 c 128,-1,29
 450 590 450 590 442.5 582.5 c 128,-1,30
 435 575 435 575 425 575 c 128,-1,31
 415 575 415 575 407.5 582.5 c 128,-1,24
 400 590 400 590 400 600 c 128,-1,25
275 800 m 128,-1,33
 275 810 275 810 282.5 817.5 c 128,-1,34
 290 825 290 825 300 825 c 128,-1,35
 310 825 310 825 317.5 817.5 c 128,-1,36
 325 810 325 810 325 800 c 128,-1,37
 325 790 325 790 317.5 782.5 c 128,-1,38
 310 775 310 775 300 775 c 128,-1,39
 290 775 290 775 282.5 782.5 c 128,-1,32
 275 790 275 790 275 800 c 128,-1,33
EndSplineSet
Validated: 2049
EndChar

StartChar: bar
Encoding: 124 124 97
Width: 600
GlyphClass: 1
Flags: W
HStem: -25 50<275.183 324.817> 775 50<275.183 324.817>
VStem: 275 50<-24.8169 24.8169 775.183 824.817>
LayerCount: 2
Fore
SplineSet
275 800 m 128,-1,1
 275 810 275 810 282.5 817.5 c 128,-1,2
 290 825 290 825 300 825 c 128,-1,3
 310 825 310 825 317.5 817.5 c 128,-1,4
 325 810 325 810 325 800 c 128,-1,5
 325 790 325 790 317.5 782.5 c 128,-1,6
 310 775 310 775 300 775 c 128,-1,7
 290 775 290 775 282.5 782.5 c 128,-1,0
 275 790 275 790 275 800 c 128,-1,1
275 0 m 128,-1,9
 275 10 275 10 282.5 17.5 c 128,-1,10
 290 25 290 25 300 25 c 128,-1,11
 310 25 310 25 317.5 17.5 c 128,-1,12
 325 10 325 10 325 0 c 128,-1,13
 325 -10 325 -10 317.5 -17.5 c 128,-1,14
 310 -25 310 -25 300 -25 c 128,-1,15
 290 -25 290 -25 282.5 -17.5 c 128,-1,8
 275 -10 275 -10 275 0 c 128,-1,9
EndSplineSet
Validated: 1
EndChar

StartChar: Agrave
Encoding: 192 192 98
Width: 600
GlyphClass: 1
Flags: W
HStem: -25 50<275.183 324.817> 375 50<275.183 324.817> 575 50<150.183 199.817 400.183 449.817>
VStem: 150 50<575.183 624.817> 275 50<-24.8169 24.8169 375.183 424.817> 400 50<575.183 624.817>
CounterMasks: 1 1c
LayerCount: 2
Fore
SplineSet
275 400 m 128,-1,1
 275 410 275 410 282.5 417.5 c 128,-1,2
 290 425 290 425 300 425 c 128,-1,3
 310 425 310 425 317.5 417.5 c 128,-1,4
 325 410 325 410 325 400 c 128,-1,5
 325 390 325 390 317.5 382.5 c 128,-1,6
 310 375 310 375 300 375 c 128,-1,7
 290 375 290 375 282.5 382.5 c 128,-1,0
 275 390 275 390 275 400 c 128,-1,1
150 600 m 128,-1,9
 150 610 150 610 157.5 617.5 c 128,-1,10
 165 625 165 625 175 625 c 128,-1,11
 185 625 185 625 192.5 617.5 c 128,-1,12
 200 610 200 610 200 600 c 128,-1,13
 200 590 200 590 192.5 582.5 c 128,-1,14
 185 575 185 575 175 575 c 128,-1,15
 165 575 165 575 157.5 582.5 c 128,-1,8
 150 590 150 590 150 600 c 128,-1,9
400 600 m 128,-1,17
 400 610 400 610 407.5 617.5 c 128,-1,18
 415 625 415 625 425 625 c 128,-1,19
 435 625 435 625 442.5 617.5 c 128,-1,20
 450 610 450 610 450 600 c 128,-1,21
 450 590 450 590 442.5 582.5 c 128,-1,22
 435 575 435 575 425 575 c 128,-1,23
 415 575 415 575 407.5 582.5 c 128,-1,16
 400 590 400 590 400 600 c 128,-1,17
275 0 m 128,-1,25
 275 10 275 10 282.5 17.5 c 128,-1,26
 290 25 290 25 300 25 c 128,-1,27
 310 25 310 25 317.5 17.5 c 128,-1,28
 325 10 325 10 325 0 c 128,-1,29
 325 -10 325 -10 317.5 -17.5 c 128,-1,30
 310 -25 310 -25 300 -25 c 128,-1,31
 290 -25 290 -25 282.5 -17.5 c 128,-1,24
 275 -10 275 -10 275 0 c 128,-1,25
EndSplineSet
Validated: 2049
EndChar

StartChar: Aacute
Encoding: 193 193 99
Width: 600
GlyphClass: 1
Flags: W
HStem: -25 50<275.183 324.817> 175 50<400.183 449.817> 375 50<275.183 324.817> 575 50<150.183 199.817>
VStem: 150 50<575.183 624.817> 275 50<-24.8169 24.8169 375.183 424.817> 400 50<175.183 224.817>
CounterMasks: 1 0e
LayerCount: 2
Fore
SplineSet
400 200 m 128,-1,1
 400 210 400 210 407.5 217.5 c 128,-1,2
 415 225 415 225 425 225 c 128,-1,3
 435 225 435 225 442.5 217.5 c 128,-1,4
 450 210 450 210 450 200 c 128,-1,5
 450 190 450 190 442.5 182.5 c 128,-1,6
 435 175 435 175 425 175 c 128,-1,7
 415 175 415 175 407.5 182.5 c 128,-1,0
 400 190 400 190 400 200 c 128,-1,1
150 600 m 128,-1,9
 150 610 150 610 157.5 617.5 c 128,-1,10
 165 625 165 625 175 625 c 128,-1,11
 185 625 185 625 192.5 617.5 c 128,-1,12
 200 610 200 610 200 600 c 128,-1,13
 200 590 200 590 192.5 582.5 c 128,-1,14
 185 575 185 575 175 575 c 128,-1,15
 165 575 165 575 157.5 582.5 c 128,-1,8
 150 590 150 590 150 600 c 128,-1,9
275 400 m 128,-1,17
 275 410 275 410 282.5 417.5 c 128,-1,18
 290 425 290 425 300 425 c 128,-1,19
 310 425 310 425 317.5 417.5 c 128,-1,20
 325 410 325 410 325 400 c 128,-1,21
 325 390 325 390 317.5 382.5 c 128,-1,22
 310 375 310 375 300 375 c 128,-1,23
 290 375 290 375 282.5 382.5 c 128,-1,16
 275 390 275 390 275 400 c 128,-1,17
275 0 m 128,-1,25
 275 10 275 10 282.5 17.5 c 128,-1,26
 290 25 290 25 300 25 c 128,-1,27
 310 25 310 25 317.5 17.5 c 128,-1,28
 325 10 325 10 325 0 c 128,-1,29
 325 -10 325 -10 317.5 -17.5 c 128,-1,30
 310 -25 310 -25 300 -25 c 128,-1,31
 290 -25 290 -25 282.5 -17.5 c 128,-1,24
 275 -10 275 -10 275 0 c 128,-1,25
EndSplineSet
Validated: 2049
EndChar

StartChar: Ograve
Encoding: 210 210 100
Width: 600
GlyphClass: 1
Flags: W
HStem: -25 50<275.183 324.817> 175 50<400.183 449.817> 375 50<275.183 324.817> 575 50<400.183 449.817>
VStem: 275 50<-24.8169 24.8169 375.183 424.817> 400 50<175.183 224.817 575.183 624.817>
LayerCount: 2
Fore
SplineSet
400 200 m 128,-1,1
 400 210 400 210 407.5 217.5 c 128,-1,2
 415 225 415 225 425 225 c 128,-1,3
 435 225 435 225 442.5 217.5 c 128,-1,4
 450 210 450 210 450 200 c 128,-1,5
 450 190 450 190 442.5 182.5 c 128,-1,6
 435 175 435 175 425 175 c 128,-1,7
 415 175 415 175 407.5 182.5 c 128,-1,0
 400 190 400 190 400 200 c 128,-1,1
400 600 m 128,-1,9
 400 610 400 610 407.5 617.5 c 128,-1,10
 415 625 415 625 425 625 c 128,-1,11
 435 625 435 625 442.5 617.5 c 128,-1,12
 450 610 450 610 450 600 c 128,-1,13
 450 590 450 590 442.5 582.5 c 128,-1,14
 435 575 435 575 425 575 c 128,-1,15
 415 575 415 575 407.5 582.5 c 128,-1,8
 400 590 400 590 400 600 c 128,-1,9
275 400 m 128,-1,17
 275 410 275 410 282.5 417.5 c 128,-1,18
 290 425 290 425 300 425 c 128,-1,19
 310 425 310 425 317.5 417.5 c 128,-1,20
 325 410 325 410 325 400 c 128,-1,21
 325 390 325 390 317.5 382.5 c 128,-1,22
 310 375 310 375 300 375 c 128,-1,23
 290 375 290 375 282.5 382.5 c 128,-1,16
 275 390 275 390 275 400 c 128,-1,17
275 0 m 128,-1,25
 275 10 275 10 282.5 17.5 c 128,-1,26
 290 25 290 25 300 25 c 128,-1,27
 310 25 310 25 317.5 17.5 c 128,-1,28
 325 10 325 10 325 0 c 128,-1,29
 325 -10 325 -10 317.5 -17.5 c 128,-1,30
 310 -25 310 -25 300 -25 c 128,-1,31
 290 -25 290 -25 282.5 -17.5 c 128,-1,24
 275 -10 275 -10 275 0 c 128,-1,25
EndSplineSet
Validated: 2049
EndChar

StartChar: Ugrave
Encoding: 217 217 101
Width: 600
GlyphClass: 1
Flags: W
HStem: -25 50<275.183 324.817> 175 50<150.183 199.817> 375 50<275.183 324.817> 575 50<400.183 449.817>
VStem: 150 50<175.183 224.817> 275 50<-24.8169 24.8169 375.183 424.817> 400 50<575.183 624.817>
CounterMasks: 1 0e
LayerCount: 2
Fore
SplineSet
150 200 m 128,-1,1
 150 210 150 210 157.5 217.5 c 128,-1,2
 165 225 165 225 175 225 c 128,-1,3
 185 225 185 225 192.5 217.5 c 128,-1,4
 200 210 200 210 200 200 c 128,-1,5
 200 190 200 190 192.5 182.5 c 128,-1,6
 185 175 185 175 175 175 c 128,-1,7
 165 175 165 175 157.5 182.5 c 128,-1,0
 150 190 150 190 150 200 c 128,-1,1
400 600 m 128,-1,9
 400 610 400 610 407.5 617.5 c 128,-1,10
 415 625 415 625 425 625 c 128,-1,11
 435 625 435 625 442.5 617.5 c 128,-1,12
 450 610 450 610 450 600 c 128,-1,13
 450 590 450 590 442.5 582.5 c 128,-1,14
 435 575 435 575 425 575 c 128,-1,15
 415 575 415 575 407.5 582.5 c 128,-1,8
 400 590 400 590 400 600 c 128,-1,9
275 400 m 128,-1,17
 275 410 275 410 282.5 417.5 c 128,-1,18
 290 425 290 425 300 425 c 128,-1,19
 310 425 310 425 317.5 417.5 c 128,-1,20
 325 410 325 410 325 400 c 128,-1,21
 325 390 325 390 317.5 382.5 c 128,-1,22
 310 375 310 375 300 375 c 128,-1,23
 290 375 290 375 282.5 382.5 c 128,-1,16
 275 390 275 390 275 400 c 128,-1,17
275 0 m 128,-1,25
 275 10 275 10 282.5 17.5 c 128,-1,26
 290 25 290 25 300 25 c 128,-1,27
 310 25 310 25 317.5 17.5 c 128,-1,28
 325 10 325 10 325 0 c 128,-1,29
 325 -10 325 -10 317.5 -17.5 c 128,-1,30
 310 -25 310 -25 300 -25 c 128,-1,31
 290 -25 290 -25 282.5 -17.5 c 128,-1,24
 275 -10 275 -10 275 0 c 128,-1,25
EndSplineSet
Validated: 2049
EndChar

StartChar: Uacute
Encoding: 218 218 102
Width: 600
GlyphClass: 1
Flags: W
HStem: -25 50<275.183 324.817> 175 50<150.183 199.817 400.183 449.817> 375 50<275.183 324.817>
VStem: 150 50<175.183 224.817> 275 50<-24.8169 24.8169 375.183 424.817> 400 50<175.183 224.817>
CounterMasks: 1 fc
LayerCount: 2
Fore
SplineSet
275 400 m 128,-1,1
 275 410 275 410 282.5 417.5 c 128,-1,2
 290 425 290 425 300 425 c 128,-1,3
 310 425 310 425 317.5 417.5 c 128,-1,4
 325 410 325 410 325 400 c 128,-1,5
 325 390 325 390 317.5 382.5 c 128,-1,6
 310 375 310 375 300 375 c 128,-1,7
 290 375 290 375 282.5 382.5 c 128,-1,0
 275 390 275 390 275 400 c 128,-1,1
150 200 m 128,-1,9
 150 210 150 210 157.5 217.5 c 128,-1,10
 165 225 165 225 175 225 c 128,-1,11
 185 225 185 225 192.5 217.5 c 128,-1,12
 200 210 200 210 200 200 c 128,-1,13
 200 190 200 190 192.5 182.5 c 128,-1,14
 185 175 185 175 175 175 c 128,-1,15
 165 175 165 175 157.5 182.5 c 128,-1,8
 150 190 150 190 150 200 c 128,-1,9
400 200 m 128,-1,17
 400 210 400 210 407.5 217.5 c 128,-1,18
 415 225 415 225 425 225 c 128,-1,19
 435 225 435 225 442.5 217.5 c 128,-1,20
 450 210 450 210 450 200 c 128,-1,21
 450 190 450 190 442.5 182.5 c 128,-1,22
 435 175 435 175 425 175 c 128,-1,23
 415 175 415 175 407.5 182.5 c 128,-1,16
 400 190 400 190 400 200 c 128,-1,17
275 0 m 128,-1,25
 275 10 275 10 282.5 17.5 c 128,-1,26
 290 25 290 25 300 25 c 128,-1,27
 310 25 310 25 317.5 17.5 c 128,-1,28
 325 10 325 10 325 0 c 128,-1,29
 325 -10 325 -10 317.5 -17.5 c 128,-1,30
 310 -25 310 -25 300 -25 c 128,-1,31
 290 -25 290 -25 282.5 -17.5 c 128,-1,24
 275 -10 275 -10 275 0 c 128,-1,25
EndSplineSet
Validated: 2049
EndChar

StartChar: agrave
Encoding: 224 224 103
Width: 600
GlyphClass: 1
Flags: W
HStem: -25 50<275.183 324.817> 375 50<275.183 324.817> 575 50<150.183 199.817 400.183 449.817>
VStem: 150 50<575.183 624.817> 275 50<-24.8169 24.8169 375.183 424.817> 400 50<575.183 624.817>
CounterMasks: 1 1c
LayerCount: 2
Fore
SplineSet
275 400 m 128,-1,1
 275 410 275 410 282.5 417.5 c 128,-1,2
 290 425 290 425 300 425 c 128,-1,3
 310 425 310 425 317.5 417.5 c 128,-1,4
 325 410 325 410 325 400 c 128,-1,5
 325 390 325 390 317.5 382.5 c 128,-1,6
 310 375 310 375 300 375 c 128,-1,7
 290 375 290 375 282.5 382.5 c 128,-1,0
 275 390 275 390 275 400 c 128,-1,1
150 600 m 128,-1,9
 150 610 150 610 157.5 617.5 c 128,-1,10
 165 625 165 625 175 625 c 128,-1,11
 185 625 185 625 192.5 617.5 c 128,-1,12
 200 610 200 610 200 600 c 128,-1,13
 200 590 200 590 192.5 582.5 c 128,-1,14
 185 575 185 575 175 575 c 128,-1,15
 165 575 165 575 157.5 582.5 c 128,-1,8
 150 590 150 590 150 600 c 128,-1,9
400 600 m 128,-1,17
 400 610 400 610 407.5 617.5 c 128,-1,18
 415 625 415 625 425 625 c 128,-1,19
 435 625 435 625 442.5 617.5 c 128,-1,20
 450 610 450 610 450 600 c 128,-1,21
 450 590 450 590 442.5 582.5 c 128,-1,22
 435 575 435 575 425 575 c 128,-1,23
 415 575 415 575 407.5 582.5 c 128,-1,16
 400 590 400 590 400 600 c 128,-1,17
275 0 m 128,-1,25
 275 10 275 10 282.5 17.5 c 128,-1,26
 290 25 290 25 300 25 c 128,-1,27
 310 25 310 25 317.5 17.5 c 128,-1,28
 325 10 325 10 325 0 c 128,-1,29
 325 -10 325 -10 317.5 -17.5 c 128,-1,30
 310 -25 310 -25 300 -25 c 128,-1,31
 290 -25 290 -25 282.5 -17.5 c 128,-1,24
 275 -10 275 -10 275 0 c 128,-1,25
EndSplineSet
Validated: 2049
EndChar

StartChar: aacute
Encoding: 225 225 104
Width: 600
GlyphClass: 1
Flags: W
HStem: -25 50<275.183 324.817> 175 50<400.183 449.817> 375 50<275.183 324.817> 575 50<150.183 199.817>
VStem: 150 50<575.183 624.817> 275 50<-24.8169 24.8169 375.183 424.817> 400 50<175.183 224.817>
CounterMasks: 1 0e
LayerCount: 2
Fore
SplineSet
400 200 m 128,-1,1
 400 210 400 210 407.5 217.5 c 128,-1,2
 415 225 415 225 425 225 c 128,-1,3
 435 225 435 225 442.5 217.5 c 128,-1,4
 450 210 450 210 450 200 c 128,-1,5
 450 190 450 190 442.5 182.5 c 128,-1,6
 435 175 435 175 425 175 c 128,-1,7
 415 175 415 175 407.5 182.5 c 128,-1,0
 400 190 400 190 400 200 c 128,-1,1
150 600 m 128,-1,9
 150 610 150 610 157.5 617.5 c 128,-1,10
 165 625 165 625 175 625 c 128,-1,11
 185 625 185 625 192.5 617.5 c 128,-1,12
 200 610 200 610 200 600 c 128,-1,13
 200 590 200 590 192.5 582.5 c 128,-1,14
 185 575 185 575 175 575 c 128,-1,15
 165 575 165 575 157.5 582.5 c 128,-1,8
 150 590 150 590 150 600 c 128,-1,9
275 400 m 128,-1,17
 275 410 275 410 282.5 417.5 c 128,-1,18
 290 425 290 425 300 425 c 128,-1,19
 310 425 310 425 317.5 417.5 c 128,-1,20
 325 410 325 410 325 400 c 128,-1,21
 325 390 325 390 317.5 382.5 c 128,-1,22
 310 375 310 375 300 375 c 128,-1,23
 290 375 290 375 282.5 382.5 c 128,-1,16
 275 390 275 390 275 400 c 128,-1,17
275 0 m 128,-1,25
 275 10 275 10 282.5 17.5 c 128,-1,26
 290 25 290 25 300 25 c 128,-1,27
 310 25 310 25 317.5 17.5 c 128,-1,28
 325 10 325 10 325 0 c 128,-1,29
 325 -10 325 -10 317.5 -17.5 c 128,-1,30
 310 -25 310 -25 300 -25 c 128,-1,31
 290 -25 290 -25 282.5 -17.5 c 128,-1,24
 275 -10 275 -10 275 0 c 128,-1,25
EndSplineSet
Validated: 2049
EndChar

StartChar: ograve
Encoding: 242 242 105
Width: 600
GlyphClass: 1
Flags: W
HStem: -25 50<275.183 324.817> 175 50<400.183 449.817> 375 50<275.183 324.817> 575 50<400.183 449.817>
VStem: 275 50<-24.8169 24.8169 375.183 424.817> 400 50<175.183 224.817 575.183 624.817>
LayerCount: 2
Fore
SplineSet
400 200 m 128,-1,1
 400 210 400 210 407.5 217.5 c 128,-1,2
 415 225 415 225 425 225 c 128,-1,3
 435 225 435 225 442.5 217.5 c 128,-1,4
 450 210 450 210 450 200 c 128,-1,5
 450 190 450 190 442.5 182.5 c 128,-1,6
 435 175 435 175 425 175 c 128,-1,7
 415 175 415 175 407.5 182.5 c 128,-1,0
 400 190 400 190 400 200 c 128,-1,1
400 600 m 128,-1,9
 400 610 400 610 407.5 617.5 c 128,-1,10
 415 625 415 625 425 625 c 128,-1,11
 435 625 435 625 442.5 617.5 c 128,-1,12
 450 610 450 610 450 600 c 128,-1,13
 450 590 450 590 442.5 582.5 c 128,-1,14
 435 575 435 575 425 575 c 128,-1,15
 415 575 415 575 407.5 582.5 c 128,-1,8
 400 590 400 590 400 600 c 128,-1,9
275 400 m 128,-1,17
 275 410 275 410 282.5 417.5 c 128,-1,18
 290 425 290 425 300 425 c 128,-1,19
 310 425 310 425 317.5 417.5 c 128,-1,20
 325 410 325 410 325 400 c 128,-1,21
 325 390 325 390 317.5 382.5 c 128,-1,22
 310 375 310 375 300 375 c 128,-1,23
 290 375 290 375 282.5 382.5 c 128,-1,16
 275 390 275 390 275 400 c 128,-1,17
275 0 m 128,-1,25
 275 10 275 10 282.5 17.5 c 128,-1,26
 290 25 290 25 300 25 c 128,-1,27
 310 25 310 25 317.5 17.5 c 128,-1,28
 325 10 325 10 325 0 c 128,-1,29
 325 -10 325 -10 317.5 -17.5 c 128,-1,30
 310 -25 310 -25 300 -25 c 128,-1,31
 290 -25 290 -25 282.5 -17.5 c 128,-1,24
 275 -10 275 -10 275 0 c 128,-1,25
EndSplineSet
Validated: 2049
EndChar

StartChar: ugrave
Encoding: 249 249 106
Width: 600
GlyphClass: 1
Flags: W
HStem: -25 50<275.183 324.817> 175 50<150.183 199.817> 375 50<275.183 324.817> 575 50<400.183 449.817>
VStem: 150 50<175.183 224.817> 275 50<-24.8169 24.8169 375.183 424.817> 400 50<575.183 624.817>
CounterMasks: 1 0e
LayerCount: 2
Fore
SplineSet
150 200 m 128,-1,1
 150 210 150 210 157.5 217.5 c 128,-1,2
 165 225 165 225 175 225 c 128,-1,3
 185 225 185 225 192.5 217.5 c 128,-1,4
 200 210 200 210 200 200 c 128,-1,5
 200 190 200 190 192.5 182.5 c 128,-1,6
 185 175 185 175 175 175 c 128,-1,7
 165 175 165 175 157.5 182.5 c 128,-1,0
 150 190 150 190 150 200 c 128,-1,1
400 600 m 128,-1,9
 400 610 400 610 407.5 617.5 c 128,-1,10
 415 625 415 625 425 625 c 128,-1,11
 435 625 435 625 442.5 617.5 c 128,-1,12
 450 610 450 610 450 600 c 128,-1,13
 450 590 450 590 442.5 582.5 c 128,-1,14
 435 575 435 575 425 575 c 128,-1,15
 415 575 415 575 407.5 582.5 c 128,-1,8
 400 590 400 590 400 600 c 128,-1,9
275 400 m 128,-1,17
 275 410 275 410 282.5 417.5 c 128,-1,18
 290 425 290 425 300 425 c 128,-1,19
 310 425 310 425 317.5 417.5 c 128,-1,20
 325 410 325 410 325 400 c 128,-1,21
 325 390 325 390 317.5 382.5 c 128,-1,22
 310 375 310 375 300 375 c 128,-1,23
 290 375 290 375 282.5 382.5 c 128,-1,16
 275 390 275 390 275 400 c 128,-1,17
275 0 m 128,-1,25
 275 10 275 10 282.5 17.5 c 128,-1,26
 290 25 290 25 300 25 c 128,-1,27
 310 25 310 25 317.5 17.5 c 128,-1,28
 325 10 325 10 325 0 c 128,-1,29
 325 -10 325 -10 317.5 -17.5 c 128,-1,30
 310 -25 310 -25 300 -25 c 128,-1,31
 290 -25 290 -25 282.5 -17.5 c 128,-1,24
 275 -10 275 -10 275 0 c 128,-1,25
EndSplineSet
Validated: 2049
EndChar

StartChar: uacute
Encoding: 250 250 107
Width: 600
GlyphClass: 1
Flags: W
HStem: -25 50<275.183 324.817> 175 50<150.183 199.817 400.183 449.817> 375 50<275.183 324.817>
VStem: 150 50<175.183 224.817> 275 50<-24.8169 24.8169 375.183 424.817> 400 50<175.183 224.817>
CounterMasks: 1 fc
LayerCount: 2
Fore
SplineSet
275 400 m 128,-1,1
 275 410 275 410 282.5 417.5 c 128,-1,2
 290 425 290 425 300 425 c 128,-1,3
 310 425 310 425 317.5 417.5 c 128,-1,4
 325 410 325 410 325 400 c 128,-1,5
 325 390 325 390 317.5 382.5 c 128,-1,6
 310 375 310 375 300 375 c 128,-1,7
 290 375 290 375 282.5 382.5 c 128,-1,0
 275 390 275 390 275 400 c 128,-1,1
150 200 m 128,-1,9
 150 210 150 210 157.5 217.5 c 128,-1,10
 165 225 165 225 175 225 c 128,-1,11
 185 225 185 225 192.5 217.5 c 128,-1,12
 200 210 200 210 200 200 c 128,-1,13
 200 190 200 190 192.5 182.5 c 128,-1,14
 185 175 185 175 175 175 c 128,-1,15
 165 175 165 175 157.5 182.5 c 128,-1,8
 150 190 150 190 150 200 c 128,-1,9
400 200 m 128,-1,17
 400 210 400 210 407.5 217.5 c 128,-1,18
 415 225 415 225 425 225 c 128,-1,19
 435 225 435 225 442.5 217.5 c 128,-1,20
 450 210 450 210 450 200 c 128,-1,21
 450 190 450 190 442.5 182.5 c 128,-1,22
 435 175 435 175 425 175 c 128,-1,23
 415 175 415 175 407.5 182.5 c 128,-1,16
 400 190 400 190 400 200 c 128,-1,17
275 0 m 128,-1,25
 275 10 275 10 282.5 17.5 c 128,-1,26
 290 25 290 25 300 25 c 128,-1,27
 310 25 310 25 317.5 17.5 c 128,-1,28
 325 10 325 10 325 0 c 128,-1,29
 325 -10 325 -10 317.5 -17.5 c 128,-1,30
 310 -25 310 -25 300 -25 c 128,-1,31
 290 -25 290 -25 282.5 -17.5 c 128,-1,24
 275 -10 275 -10 275 0 c 128,-1,25
EndSplineSet
Validated: 2049
EndChar

StartChar: parenleft
Encoding: 40 40 108
Width: 600
Flags: W
HStem: -24.9951 49.9902<282.552 317.448> 575.005 49.9902<157.552 192.448> 775.005 49.9902<282.552 317.448>
VStem: 150.005 49.9902<582.552 617.448> 275.005 49.9902<-17.4483 17.4483 782.552 817.448>
LayerCount: 2
Fore
SplineSet
275 800 m 128,-1,1
 275 810 275 810 282 817 c 0,2,3
 290 825 290 825 300 825 c 128,-1,4
 310 825 310 825 317 818 c 0,5,6
 325 810 325 810 325 800 c 128,-1,7
 325 790 325 790 318 783 c 0,8,9
 310 775 310 775 300 775 c 128,-1,10
 290 775 290 775 282.5 782.5 c 128,-1,0
 275 790 275 790 275 800 c 128,-1,1
275 0 m 128,-1,12
 275 10 275 10 282 17 c 0,13,14
 290 25 290 25 300 25 c 128,-1,15
 310 25 310 25 317 18 c 0,16,17
 325 10 325 10 325 0 c 128,-1,18
 325 -10 325 -10 318 -17 c 0,19,20
 310 -25 310 -25 300 -25 c 128,-1,21
 290 -25 290 -25 282.5 -17.5 c 128,-1,11
 275 -10 275 -10 275 0 c 128,-1,12
150 600 m 128,-1,23
 150 610 150 610 157 617 c 0,24,25
 165 625 165 625 175 625 c 128,-1,26
 185 625 185 625 192 618 c 0,27,28
 200 610 200 610 200 600 c 128,-1,29
 200 590 200 590 193 583 c 0,30,31
 185 575 185 575 175 575 c 128,-1,32
 165 575 165 575 157.5 582.5 c 128,-1,22
 150 590 150 590 150 600 c 128,-1,23
EndSplineSet
Validated: 1
EndChar

StartChar: parenright
Encoding: 41 41 109
Width: 600
Flags: W
HStem: -24.9951 49.9902<282.552 317.448> 575.005 49.9902<407.552 442.448> 775.005 49.9902<282.552 317.448>
VStem: 275.005 49.9902<-17.4483 17.4483 782.552 817.448> 400.005 49.9902<582.552 617.448>
LayerCount: 2
Fore
SplineSet
275 0 m 128,-1,1
 275 10 275 10 282 17 c 0,2,3
 290 25 290 25 300 25 c 128,-1,4
 310 25 310 25 317 18 c 0,5,6
 325 10 325 10 325 0 c 128,-1,7
 325 -10 325 -10 318 -17 c 0,8,9
 310 -25 310 -25 300 -25 c 128,-1,10
 290 -25 290 -25 282.5 -17.5 c 128,-1,0
 275 -10 275 -10 275 0 c 128,-1,1
275 800 m 128,-1,12
 275 810 275 810 282 817 c 0,13,14
 290 825 290 825 300 825 c 128,-1,15
 310 825 310 825 317 818 c 0,16,17
 325 810 325 810 325 800 c 128,-1,18
 325 790 325 790 318 783 c 0,19,20
 310 775 310 775 300 775 c 128,-1,21
 290 775 290 775 282.5 782.5 c 128,-1,11
 275 790 275 790 275 800 c 128,-1,12
400 600 m 128,-1,23
 400 610 400 610 407 617 c 0,24,25
 415 625 415 625 425 625 c 128,-1,26
 435 625 435 625 442 618 c 0,27,28
 450 610 450 610 450 600 c 128,-1,29
 450 590 450 590 443 583 c 0,30,31
 435 575 435 575 425 575 c 128,-1,32
 415 575 415 575 407.5 582.5 c 128,-1,22
 400 590 400 590 400 600 c 128,-1,23
EndSplineSet
Validated: 1
EndChar
